<svg xmlns="http://www.w3.org/2000/svg" width="30" height="26" viewBox="0 0 30 26" fill="none">
    <path
        d="M27.8571 7.92188C27.8571 7.00781 27.7372 6.20095 27.4972 5.5013C27.2573 4.80165 26.9503 4.24588 26.5765 3.83398C26.2026 3.42209 25.7478 3.08637 25.2121 2.82682C24.6763 2.56727 24.1518 2.39236 23.6384 2.30208C23.125 2.21181 22.5781 2.16667 21.9978 2.16667C21.4174 2.16667 20.7924 2.31055 20.1228 2.59831C19.4531 2.88607 18.8365 3.24718 18.2729 3.68164C17.7093 4.1161 17.2266 4.52235 16.8248 4.90039C16.423 5.27843 16.0882 5.62543 15.8203 5.94141C15.6194 6.18967 15.346 6.3138 15 6.3138C14.654 6.3138 14.3806 6.18967 14.1797 5.94141C13.9118 5.62543 13.577 5.27843 13.1752 4.90039C12.7734 4.52235 12.2907 4.1161 11.7271 3.68164C11.1635 3.24718 10.5469 2.88607 9.87723 2.59831C9.20759 2.31055 8.58259 2.16667 8.00223 2.16667C7.42187 2.16667 6.875 2.21181 6.36161 2.30208C5.84821 2.39236 5.32366 2.56727 4.78795 2.82682C4.25223 3.08637 3.79743 3.42209 3.42355 3.83398C3.04966 4.24588 2.74275 4.80165 2.50279 5.5013C2.26283 6.20095 2.14286 7.00781 2.14286 7.92188C2.14286 9.81771 3.18638 11.8207 5.27344 13.931L15 23.4102L24.7098 13.9479C26.808 11.8264 27.8571 9.81771 27.8571 7.92188ZM30 7.92188C30 10.4158 28.7221 12.9549 26.1663 15.5391L15.7366 25.6953C15.5357 25.8984 15.2902 26 15 26C14.7098 26 14.4643 25.8984 14.2634 25.6953L3.81696 15.5052C3.70536 15.4149 3.5519 15.2682 3.35658 15.0651C3.16127 14.862 2.85156 14.4924 2.42746 13.9564C2.00335 13.4204 1.62388 12.8702 1.28906 12.306C0.954241 11.7418 0.655692 11.059 0.393415 10.2578C0.131138 9.4566 0 8.67795 0 7.92188C0 5.43924 0.708705 3.49826 2.12612 2.09896C3.54353 0.699653 5.50223 0 8.00223 0C8.6942 0 9.40011 0.121311 10.12 0.363932C10.8398 0.606554 11.5095 0.933811 12.1289 1.3457C12.7483 1.7576 13.2812 2.1441 13.7277 2.50521C14.1741 2.86632 14.5982 3.25 15 3.65625C15.4018 3.25 15.8259 2.86632 16.2723 2.50521C16.7188 2.1441 17.2517 1.7576 17.8711 1.3457C18.4905 0.933811 19.1602 0.606554 19.88 0.363932C20.5999 0.121311 21.3058 0 21.9978 0C24.4978 0 26.4565 0.699653 27.8739 2.09896C29.2913 3.49826 30 5.43924 30 7.92188Z"
        fill="#FFCC36" />
</svg>