<svg xmlns="http://www.w3.org/2000/svg" width="16" height="16" viewBox="0 0 16 17" fill="none">
    <path
        d="M8.67188 2.14062C8.67188 1.50107 8.15518 0.984375 7.51562 0.984375C6.87607 0.984375 6.35938 1.50107 6.35938 2.14062V7.34375H1.15625C0.516699 7.34375 0 7.86045 0 8.5C0 9.13955 0.516699 9.65625 1.15625 9.65625H6.35938V14.8594C6.35938 15.4989 6.87607 16.0156 7.51562 16.0156C8.15518 16.0156 8.67188 15.4989 8.67188 14.8594V9.65625H13.875C14.5146 9.65625 15.0312 9.13955 15.0312 8.5C15.0312 7.86045 14.5146 7.34375 13.875 7.34375H8.67188V2.14062Z"
        fill="#FDFDFD" />
</svg>