<svg width="112" height="48" viewBox="0 0 112 48" fill="none" xmlns="http://www.w3.org/2000/svg">
<path d="M91.0116 0.667969H21.0012C19.713 0.667969 18.6675 1.71346 18.6675 3.00165V45.0079C18.6675 46.2961 19.713 47.3416 21.0012 47.3416H91.0116C92.2998 47.3416 93.3453 46.2961 93.3453 45.0079V3.00165C93.3453 1.71346 92.2998 0.667969 91.0116 0.667969Z" fill="#0098AA"/>
<path d="M0 22.3036V25.7104C0 30.4052 3.67276 34.4466 8.92757 35.5386L14.0004 36.598V11.416L8.92757 12.4707C3.67276 13.5674 0 17.6088 0 22.3036Z" fill="#0098AA"/>
<path d="M103.072 12.4707L97.9996 11.416V36.598L103.072 35.5433C108.327 34.4466 112 30.4052 112 25.7104V22.3036C112 17.6088 108.327 13.5674 103.072 12.4707Z" fill="#0098AA"/>
</svg>
