<svg width="112" height="112" viewBox="0 0 112 112" fill="none" xmlns="http://www.w3.org/2000/svg">
<path d="M72.8619 100.677C76.8658 104.57 82.2625 105.482 85.9873 102.887L88.6903 101.005C92.4151 98.4107 93.4313 93.0327 91.1641 87.9299L88.9794 83.0009L69 96.916L72.8619 100.677Z" fill="#0098AA"/>
<path d="M9.52405 45.1031C4.03169 46.1143 0.164507 49.9874 0.123832 54.5265L0.0943172 57.8202C0.0536427 62.3593 3.8508 66.3011 9.32419 67.406L14.608 68.4777L14.8261 44.1309L9.52405 45.1031Z" fill="#0098AA"/>
<path d="M96.1397 30.2727C98.9103 25.4237 98.4458 19.9703 95.0038 17.011L92.5062 14.8636C89.0642 11.9043 83.6028 12.2628 79.2275 15.7321L75 19.0781L93.4621 34.9512L96.1397 30.2727Z" fill="#0098AA"/>
<ellipse cx="56.0032" cy="55.9982" rx="36.5214" ry="36.5217" fill="#0098AA"/>
</svg>
