<svg width="95" height="84" viewBox="0 0 95 84" fill="none" xmlns="http://www.w3.org/2000/svg">
<path d="M92.0117 18.668H22.0013C20.7131 18.668 19.6676 19.7135 19.6676 21.0016V63.0079C19.6676 64.2961 20.7131 65.3416 22.0013 65.3416H92.0117C93.2999 65.3416 94.3454 64.2961 94.3454 63.0079V21.0016C94.3454 19.7135 93.2999 18.668 92.0117 18.668Z" fill="#0098AA"/>
<path d="M45.0547 75.0728C46.1514 80.3276 50.1928 84.0004 54.8876 84.0004H58.2944C62.9892 84.0004 67.0306 80.3276 68.1226 75.0728L69.182 70H44L45.0547 75.0728Z" fill="#0098AA"/>
<path d="M8.92983 30.0658C3.67743 31.174 0.0135157 35.2234 0.0237826 39.9182L0.0312328 43.325C0.0414997 48.0197 3.72309 52.0531 8.98027 53.1337L14.0554 54.1819L14.0003 29L8.92983 30.0658Z" fill="#0098AA"/>
<path d="M67.1274 8.92757C66.0307 3.67276 61.9893 0 57.2945 0H53.8877C49.193 0 45.1515 3.67276 44.0548 8.92757L43.0001 14.0004H68.1821L67.1274 8.92757Z" fill="#0098AA"/>
</svg>
