<svg width="112" height="112" viewBox="0 0 112 112" fill="none" xmlns="http://www.w3.org/2000/svg">
<path d="M44.8454 102.684C45.9058 108.167 49.8133 111.999 54.3525 111.999H57.6464C62.1857 111.999 66.0932 108.167 67.149 102.684L68.1733 97.3906H43.8257L44.8454 102.684Z" fill="#0098AA"/>
<path d="M67.1534 9.31617C66.093 3.83305 62.1855 0.000715733 57.6463 0.000715733H54.3524C49.8132 0.000715733 45.9056 3.83305 44.8498 9.31617L43.8255 14.6094L68.1731 14.6094L67.1534 9.31617Z" fill="#0098AA"/>
<path d="M102.685 67.1541C108.168 66.0937 112 62.1862 112 57.6469V54.353C112 49.8137 108.168 45.9062 102.685 44.8503L97.3914 43.8261V68.1738L102.685 67.1541Z" fill="#0098AA"/>
<path d="M9.3153 44.844C3.83222 45.9043 -9.19123e-05 49.8119 -9.19123e-05 54.3512V57.6451C-9.19123e-05 62.1843 3.83222 66.0919 9.3153 67.1477L14.6085 68.172L14.6085 43.8242L9.3153 44.844Z" fill="#0098AA"/>
<ellipse cx="56.0032" cy="55.9982" rx="36.5214" ry="36.5217" fill="#0098AA"/>
</svg>
