<svg width="115" height="85" viewBox="0 0 115 85" fill="none" xmlns="http://www.w3.org/2000/svg">
<path d="M92.0116 18.668H22.0012C20.713 18.668 19.6675 19.7135 19.6675 21.0016V63.0079C19.6675 64.2961 20.713 65.3416 22.0012 65.3416H92.0116C93.2998 65.3416 94.3453 64.2961 94.3453 63.0079V21.0016C94.3453 19.7135 93.2998 18.668 92.0116 18.668Z" fill="#0098AA"/>
<path d="M105.123 53.1456C110.376 52.038 114.04 47.9889 114.03 43.2941L114.023 39.8873C114.013 35.1925 110.332 31.1588 105.075 30.0777L100 29.029L100.053 54.2109L105.123 53.1456Z" fill="#0098AA"/>
<path d="M9.08239 31.1119C3.82065 32.1748 0.121998 36.1926 0.0918334 40.8873L0.0699445 44.294C0.0397796 48.9887 3.6865 53.0536 8.93418 54.1794L14.0001 55.2713L14.1619 30.0898L9.08239 31.1119Z" fill="#0098AA"/>
<path d="M45.083 75.2072C46.209 80.4558 50.2709 84.106 54.9656 84.0798L58.3723 84.0608C63.067 84.0346 67.0879 80.3393 68.1553 75.0785L69.1816 69.9998L44 70.1404L45.083 75.2072Z" fill="#0098AA"/>
<path d="M68.1273 8.92757C67.0306 3.67276 62.9892 0 58.2944 0H54.8876C50.1928 0 46.1514 3.67276 45.0594 8.92757L44 14.0004H69.182L68.1273 8.92757Z" fill="#0098AA"/>
</svg>
