<svg width="112" height="112" viewBox="0 0 112 112" fill="none" xmlns="http://www.w3.org/2000/svg">
<path d="M45.0197 102.293C46.0801 107.776 49.9876 111.609 54.5269 111.609H57.8207C62.36 111.609 66.2675 107.776 67.3234 102.293L68.3476 97H44L45.0197 102.293Z" fill="#0098AA"/>
<path d="M32.6973 13.0556C28.3623 9.53463 22.9058 9.10784 19.4271 12.0238L16.9028 14.1398C13.424 17.0558 12.8913 22.503 15.6045 27.3834L18.2199 32.0979L36.8792 16.457L32.6973 13.0556Z" fill="#0098AA"/>
<path d="M98.0216 80.7951C103.511 81.8214 108.51 79.5933 110.176 75.3709L111.386 72.3069C113.052 68.0845 110.921 63.043 106.208 60.0483L101.661 57.1526L92.7236 79.8008L98.0216 80.7951Z" fill="#0098AA"/>
<path d="M96.8922 28.3367C100.141 23.7945 100.234 18.3221 97.1103 15.0282L94.8439 12.638C91.7206 9.34413 86.251 9.14552 81.5457 12.1521L77 15.0509L93.7529 32.7188L96.8922 28.3367Z" fill="#0098AA"/>
<path d="M6.6043 59.9073C1.69236 62.5646 -0.790282 67.4423 0.57228 71.7723L1.56102 74.9143C2.92358 79.2442 7.75211 81.8212 13.2993 81.1825L18.6558 80.5707L11.3473 57.3457L6.6043 59.9073Z" fill="#0098AA"/>
<ellipse cx="56.0032" cy="55.9982" rx="36.5214" ry="36.5217" fill="#0098AA"/>
</svg>
