<svg width="94" height="85" viewBox="0 0 94 85" fill="none" xmlns="http://www.w3.org/2000/svg">
<path d="M91.0116 18.668H21.0012C19.713 18.668 18.6675 19.7135 18.6675 21.0016V63.0079C18.6675 64.2961 19.713 65.3416 21.0012 65.3416H91.0116C92.2998 65.3416 93.3453 64.2961 93.3453 63.0079V21.0016C93.3453 19.7135 92.2998 18.668 91.0116 18.668Z" fill="#0098AA"/>
<path d="M58.4825 75.0962C59.5792 80.351 63.6206 84.0238 68.3154 84.0238H71.7222C76.417 84.0238 80.4584 80.351 81.5504 75.0962L82.6098 70.0234H57.4278L58.4825 75.0962Z" fill="#0098AA"/>
<path d="M30.471 75.0962C31.5676 80.351 35.6091 84.0238 40.3039 84.0238H43.7106C48.4054 84.0238 52.4469 80.351 53.5389 75.0962L54.5983 70.0234H29.4163L30.471 75.0962Z" fill="#0098AA"/>
<path d="M0 40.3017V43.7084C0 48.4032 3.67276 52.4447 8.92757 53.5367L14.0004 54.5961V29.4141L8.92757 30.4688C3.67276 31.5655 0 35.6069 0 40.3017Z" fill="#0098AA"/>
<path d="M53.5436 8.92757C52.4469 3.67276 48.4054 0 43.7106 0H40.3039C35.6091 0 31.5676 3.67276 30.471 8.92757L29.4163 14.0004H54.5983L53.5436 8.92757Z" fill="#0098AA"/>
<path d="M81.5551 8.92757C80.4584 3.67276 76.417 0 71.7222 0H68.3154C63.6206 0 59.5792 3.67276 58.4872 8.92757L57.4278 14.0004H82.6098L81.5551 8.92757Z" fill="#0098AA"/>
</svg>
