<svg width="112" height="112" viewBox="0 0 112 112" fill="none" xmlns="http://www.w3.org/2000/svg">
<path d="M44.8454 102.684C45.9058 108.167 49.8133 111.999 54.3526 111.999H57.6464C62.1857 111.999 66.0932 108.167 67.149 102.684L68.1733 97.3906H43.8257L44.8454 102.684Z" fill="#0098AA"/>
<path d="M67.1534 9.31617C66.0931 3.83305 62.1855 0.000715733 57.6463 0.000715733H54.3524C49.8132 0.000715733 45.9056 3.83305 44.8498 9.31617L43.8255 14.6094L68.1732 14.6094L67.1534 9.31617Z" fill="#0098AA"/>
<path d="M90.8991 91.0554C95.9762 93.3815 101.366 92.4315 104.006 88.7388L105.922 86.0592C108.562 82.3665 107.717 76.959 103.87 72.9113L100.16 68.9997L86 88.8066L90.8991 91.0554Z" fill="#0098AA"/>
<path d="M6.109 72.3951C2.22187 76.405 1.31873 81.8031 3.91878 85.5239L5.8055 88.224C8.40555 91.9448 13.7851 92.9527 18.8844 90.6775L23.8099 88.4852L9.86371 68.5273L6.109 72.3951Z" fill="#0098AA"/>
<path d="M104.053 39.8983C108.312 36.2853 109.735 31.0005 107.509 27.0445L105.894 24.1739C103.668 20.218 98.4116 18.6919 93.1153 20.4607L88 22.1638L99.9402 43.3828L104.053 39.8983Z" fill="#0098AA"/>
<path d="M18.7765 20.8375C13.5803 18.791 8.24985 20.0329 5.81478 23.8637L4.04778 26.6435C1.6127 30.4744 2.75072 35.8279 6.81166 39.6604L10.7293 43.3643L23.7906 22.8164L18.7765 20.8375Z" fill="#0098AA"/>
<ellipse cx="56.0032" cy="55.9982" rx="36.5214" ry="36.5217" fill="#0098AA"/>
</svg>
