<svg width="50" height="50" viewBox="0 0 50 50" fill="none" xmlns="http://www.w3.org/2000/svg">
<g clip-path="url(#clip0_1077_13136)">
<path d="M28.8462 3.84615C28.8462 1.71875 27.1274 0 25 0C22.8726 0 21.1538 1.71875 21.1538 3.84615V21.1538H3.84615C1.71875 21.1538 0 22.8726 0 25C0 27.1274 1.71875 28.8462 3.84615 28.8462H21.1538V46.1538C21.1538 48.2812 22.8726 50 25 50C27.1274 50 28.8462 48.2812 28.8462 46.1538V28.8462H46.1538C48.2812 28.8462 50 27.1274 50 25C50 22.8726 48.2812 21.1538 46.1538 21.1538H28.8462V3.84615Z" fill="#0098AA" fill-opacity="0.8"/>
</g>
<defs>
<clipPath id="clip0_1077_13136">
<rect width="50" height="50" fill="white"/>
</clipPath>
</defs>
</svg>
