<svg width="24" height="22" viewBox="0 0 24 22" fill="none" xmlns="http://www.w3.org/2000/svg">
<path d="M21.502 0.529297H2.49796C1.83546 0.529297 1.20009 0.79282 0.731635 1.2619C0.263177 1.73097 0 2.36717 0 3.03054V14.8526C0 15.516 0.263177 16.1522 0.731635 16.6213C1.20009 17.0903 1.83546 17.3539 2.49796 17.3539H14.1869C15.1749 17.3539 15.8699 18.3426 15.5182 19.2666C15.5182 19.2725 15.5138 19.2788 15.5113 19.2847C14.9804 20.658 14.0142 21.249 13.5797 21.4574C14.0181 21.4819 15.8738 21.6241 17.6542 20.0429C18.2455 19.5165 18.7244 18.876 19.0624 18.1597C19.1778 17.918 19.3592 17.714 19.5856 17.5713C19.812 17.4286 20.0742 17.353 20.3417 17.3534H21.502C22.1645 17.3534 22.7999 17.0898 23.2684 16.6208C23.7368 16.1517 24 15.5155 24 14.8521V3.03251C24.0003 2.70387 23.9358 2.37841 23.8104 2.07472C23.685 1.77103 23.501 1.49506 23.2691 1.26259C23.0371 1.03012 22.7616 0.845703 22.4584 0.71988C22.1552 0.594058 21.8302 0.529297 21.502 0.529297ZM6.78367 2.73187C7.51022 2.73187 8.22045 2.94759 8.82454 3.35177C9.42864 3.75595 9.89948 4.33042 10.1775 5.00254C10.4556 5.67467 10.5283 6.41425 10.3866 7.12777C10.2448 7.84129 9.89495 8.4967 9.38121 9.01112C8.86746 9.52554 8.21292 9.87587 7.50033 10.0178C6.78775 10.1597 6.04914 10.0869 5.3779 9.80848C4.70666 9.53008 4.13294 9.05862 3.7293 8.45373C3.32565 7.84883 3.1102 7.13767 3.1102 6.41017C3.1102 5.92713 3.20522 5.44882 3.38983 5.00254C3.57444 4.55627 3.84503 4.15078 4.18614 3.80922C4.87505 3.1194 5.80941 2.73187 6.78367 2.73187ZM12.1469 13.0061C12.1469 13.6238 11.9019 14.2162 11.4657 14.653C11.0294 15.0898 10.4378 15.3352 9.8209 15.3352H3.74743C3.44189 15.3353 3.13931 15.2752 2.85699 15.1582C2.57467 15.0412 2.31813 14.8697 2.10204 14.6534C1.88594 14.4371 1.71452 14.1803 1.59756 13.8976C1.48061 13.615 1.42041 13.312 1.42041 13.0061C1.42041 12.3885 1.66541 11.7961 2.10152 11.3594C2.53763 10.9226 3.12914 10.6771 3.74596 10.677H9.81943C10.125 10.6768 10.4276 10.7369 10.71 10.8539C10.9924 10.9708 11.249 11.1424 11.4651 11.3587C11.6813 11.575 11.8528 11.8318 11.9697 12.1145C12.0867 12.3971 12.1469 12.7001 12.1469 13.0061ZM14.3079 3.83487H21.1651C21.243 3.83487 21.3178 3.86587 21.3729 3.92105C21.428 3.97624 21.4589 4.05109 21.4589 4.12913C21.4589 4.20717 21.428 4.28202 21.3729 4.33721C21.3178 4.39239 21.243 4.42339 21.1651 4.42339H14.3079C14.23 4.42339 14.1552 4.39239 14.1001 4.33721C14.045 4.28202 14.014 4.20717 14.014 4.12913C14.014 4.05109 14.045 3.97624 14.1001 3.92105C14.1552 3.86587 14.23 3.83487 14.3079 3.83487ZM21.2023 14.2322H14.3451C14.2672 14.2322 14.1925 14.2012 14.1373 14.146C14.0822 14.0908 14.0513 14.016 14.0513 13.9379C14.0513 13.8599 14.0822 13.7851 14.1373 13.7299C14.1925 13.6747 14.2672 13.6437 14.3451 13.6437H21.2023C21.2802 13.6437 21.355 13.6747 21.4101 13.7299C21.4652 13.7851 21.4962 13.8599 21.4962 13.9379C21.4962 14.016 21.4652 14.0908 21.4101 14.146C21.355 14.2012 21.2802 14.2322 21.2023 14.2322ZM21.2023 11.78H14.3451C14.2672 11.78 14.1925 11.749 14.1373 11.6938C14.0822 11.6386 14.0513 11.5638 14.0513 11.4857C14.0513 11.4077 14.0822 11.3328 14.1373 11.2777C14.1925 11.2225 14.2672 11.1915 14.3451 11.1915H21.2023C21.2802 11.1915 21.355 11.2225 21.4101 11.2777C21.4652 11.3328 21.4962 11.4077 21.4962 11.4857C21.4962 11.5638 21.4652 11.6386 21.4101 11.6938C21.355 11.749 21.2802 11.78 21.2023 11.78ZM21.2023 9.3278H14.3451C14.2672 9.3278 14.1925 9.2968 14.1373 9.24161C14.0822 9.18643 14.0513 9.11158 14.0513 9.03354C14.0513 8.95549 14.0822 8.88065 14.1373 8.82546C14.1925 8.77027 14.2672 8.73927 14.3451 8.73927H21.2023C21.2802 8.73927 21.355 8.77027 21.4101 8.82546C21.4652 8.88065 21.4962 8.95549 21.4962 9.03354C21.4962 9.11158 21.4652 9.18643 21.4101 9.24161C21.355 9.2968 21.2802 9.3278 21.2023 9.3278ZM21.2023 6.8756H14.3451C14.2672 6.8756 14.1925 6.8446 14.1373 6.78941C14.0822 6.73422 14.0513 6.65938 14.0513 6.58133C14.0513 6.50329 14.0822 6.42844 14.1373 6.37326C14.1925 6.31807 14.2672 6.28707 14.3451 6.28707H21.2023C21.2802 6.28707 21.355 6.31807 21.4101 6.37326C21.4652 6.42844 21.4962 6.50329 21.4962 6.58133C21.4962 6.65938 21.4652 6.73422 21.4101 6.78941C21.355 6.8446 21.2802 6.8756 21.2023 6.8756Z" fill="#F9F9F9"/>
</svg>
