<svg width="24" height="24" viewBox="0 0 24 24" fill="none" xmlns="http://www.w3.org/2000/svg">
<path d="M12.0458 11.293V1.41014C12.0458 1.01199 12.3559 0.675781 12.7544 0.675781C18.2326 0.675781 22.6745 5.11288 22.6745 10.5852C22.6745 10.9833 22.338 11.293 21.9394 11.293H12.0458ZM0 12.7086C0 7.34249 3.99019 2.90097 9.16724 2.19315C9.57468 2.13564 9.92011 2.46301 9.92011 2.87442V13.4164L16.8509 20.3397C17.1476 20.6361 17.1255 21.1227 16.7845 21.3616C15.0485 22.6003 12.9227 23.3258 10.6287 23.3258C4.76077 23.3258 0 18.5746 0 12.7086ZM23.3123 13.4164C23.7241 13.4164 24.0474 13.7615 23.9943 14.1685C23.6533 16.6414 22.462 18.84 20.7215 20.4636C20.4558 20.7113 20.0395 20.6936 19.7826 20.4326L12.7544 13.4164H23.3123Z" fill="#F9F9F9"/>
</svg>
