<svg width="86" height="86" viewBox="0 0 86 86" fill="none" xmlns="http://www.w3.org/2000/svg">
<path d="M43 86C54.4043 86 65.3415 81.4697 73.4056 73.4056C81.4697 65.3415 86 54.4043 86 43C86 31.5957 81.4697 20.6585 73.4056 12.5944C65.3415 4.53034 54.4043 0 43 0C31.5957 0 20.6585 4.53034 12.5944 12.5944C4.53034 20.6585 0 31.5957 0 43C0 54.4043 4.53034 65.3415 12.5944 73.4056C20.6585 81.4697 31.5957 86 43 86ZM29.3945 29.3945C30.9734 27.8156 33.5266 27.8156 35.0887 29.3945L42.9832 37.2891L50.8777 29.3945C52.4566 27.8156 55.0098 27.8156 56.5719 29.3945C58.134 30.9734 58.1508 33.5266 56.5719 35.0887L48.6773 42.9832L56.5719 50.8777C58.1508 52.4566 58.1508 55.0098 56.5719 56.5719C54.993 58.134 52.4398 58.1508 50.8777 56.5719L42.9832 48.6773L35.0887 56.5719C33.5098 58.1508 30.9566 58.1508 29.3945 56.5719C27.8324 54.993 27.8156 52.4398 29.3945 50.8777L37.2891 42.9832L29.3945 35.0887C27.8156 33.5098 27.8156 30.9566 29.3945 29.3945Z" fill="#D23D3D"/>
</svg>
