<svg width="20" height="20" viewBox="0 0 20 20" fill="none" xmlns="http://www.w3.org/2000/svg">
<path d="M18.6136 0.648281C17.7493 -0.216094 16.3521 -0.216094 15.4877 0.648281L14.2997 1.83235L18.1637 5.69638L19.3517 4.50836C20.2161 3.64399 20.2161 2.24678 19.3517 1.38241L18.6136 0.648281ZM6.80448 9.33149C6.56372 9.57225 6.37821 9.86827 6.27165 10.1959L5.10336 13.7007C4.9889 14.0402 5.07968 14.4151 5.33228 14.6717C5.58488 14.9282 5.95984 15.015 6.30322 14.9006L9.80808 13.7323C10.1317 13.6257 10.4277 13.4402 10.6725 13.1995L17.2756 6.59233L13.4077 2.72436L6.80448 9.33149ZM3.78904 2.31783C1.69717 2.31783 0 4.015 0 6.10686V16.211C0 18.3028 1.69717 20 3.78904 20H13.8931C15.985 20 17.6822 18.3028 17.6822 16.211V12.4219C17.6822 11.7233 17.1178 11.1589 16.4192 11.1589C15.7206 11.1589 15.1562 11.7233 15.1562 12.4219V16.211C15.1562 16.9096 14.5917 17.474 13.8931 17.474H3.78904C3.09043 17.474 2.52603 16.9096 2.52603 16.211V6.10686C2.52603 5.40826 3.09043 4.84385 3.78904 4.84385H7.57808C8.27668 4.84385 8.84109 4.27944 8.84109 3.58084C8.84109 2.88223 8.27668 2.31783 7.57808 2.31783H3.78904Z" fill="#0098AA"/>
</svg>
