<svg width="26" height="24" viewBox="0 0 26 24" fill="none" xmlns="http://www.w3.org/2000/svg">
<path d="M25.9502 5.00391L16.8307 14.1234C15.8138 15.1377 14.4362 15.7073 13 15.7073C11.5638 15.7073 10.1862 15.1377 9.16933 14.1234L0.0498333 5.00391C0.0346667 5.17507 0 5.32999 0 5.50007V18.5001C0.00172018 19.9361 0.572955 21.3129 1.5884 22.3283C2.60385 23.3438 3.98061 23.915 5.41667 23.9167H20.5833C22.0194 23.915 23.3961 23.3438 24.4116 22.3283C25.427 21.3129 25.9983 19.9361 26 18.5001V5.50007C26 5.32999 25.9653 5.17507 25.9502 5.00391Z" fill="#0098AA"/>
<path d="M15.2985 12.5917L25.1937 2.69541C24.7143 1.90059 24.0382 1.2427 23.2306 0.785204C22.423 0.327704 21.5112 0.0860318 20.583 0.0834961H5.41633C4.48815 0.0860318 3.57629 0.327704 2.76869 0.785204C1.9611 1.2427 1.28502 1.90059 0.805664 2.69541L10.7008 12.5917C11.3114 13.1998 12.138 13.5412 12.9997 13.5412C13.8614 13.5412 14.688 13.1998 15.2985 12.5917Z" fill="#0098AA"/>
</svg>
