<svg width="18" height="20" viewBox="0 0 18 20" fill="none" xmlns="http://www.w3.org/2000/svg">
<path d="M6.63676 0.211914C6.92167 -0.0732285 7.36363 -0.0693225 7.64853 0.21582C8.65665 1.22749 9.60267 2.31728 10.4866 3.49691C10.8884 2.93444 11.345 2.32118 11.8381 1.82121C12.1266 1.53216 12.5722 1.53216 12.8608 1.82512C14.1246 3.11411 15.1948 4.81715 15.9472 6.43426C16.6887 8.02793 17.1818 9.65676 17.1818 10.8051C17.1818 15.7893 13.5365 20 8.99999 20C4.41233 20 0.818176 15.7854 0.818176 10.8012C0.818176 9.30131 1.46834 7.46937 2.47646 5.65696C3.49553 3.8172 4.93465 1.89933 6.63676 0.211914ZM9.06209 16.2502C9.9862 16.2502 10.8044 15.9768 11.5751 15.4299C13.1128 14.2815 13.5256 11.9848 12.6015 10.1802C12.4371 9.82863 12.017 9.80519 11.7796 10.1021L10.8592 11.2465C10.6181 11.5434 10.1834 11.5356 9.95697 11.227C9.3543 10.4067 8.27678 8.94195 7.66314 8.10996C7.43303 7.79748 6.99472 7.79357 6.76095 8.10606C5.52637 9.76613 4.90543 10.813 4.90543 11.9887C4.90909 14.6643 6.7573 16.2502 9.06209 16.2502Z" fill="#FFCC36"/>
</svg>
