<svg width="99" height="97" viewBox="0 0 99 97" fill="none" xmlns="http://www.w3.org/2000/svg">
<path d="M77 22.75C78.5125 22.75 79.75 23.9875 79.75 25.5V80.4656L78.8906 79.3484L55.5156 49.0984C54.7422 48.0844 53.5219 47.5 52.25 47.5C50.9781 47.5 49.775 48.0844 48.9844 49.0984L34.7188 67.5578L29.4766 60.2188C28.7031 59.1359 27.4656 58.5 26.125 58.5C24.7844 58.5 23.5469 59.1359 22.7734 60.2359L9.02344 79.4859L8.25 80.5516V80.5V25.5C8.25 23.9875 9.4875 22.75 11 22.75H77ZM11 14.5C4.93281 14.5 0 19.4328 0 25.5V80.5C0 86.5672 4.93281 91.5 11 91.5H77C83.0672 91.5 88 86.5672 88 80.5V25.5C88 19.4328 83.0672 14.5 77 14.5H11ZM24.75 47.5C25.8334 47.5 26.9062 47.2866 27.9071 46.872C28.9081 46.4574 29.8175 45.8497 30.5836 45.0836C31.3497 44.3175 31.9574 43.4081 32.372 42.4071C32.7866 41.4062 33 40.3334 33 39.25C33 38.1666 32.7866 37.0938 32.372 36.0929C31.9574 35.0919 31.3497 34.1825 30.5836 33.4164C29.8175 32.6503 28.9081 32.0426 27.9071 31.628C26.9062 31.2134 25.8334 31 24.75 31C23.6666 31 22.5938 31.2134 21.5929 31.628C20.5919 32.0426 19.6825 32.6503 18.9164 33.4164C18.1503 34.1825 17.5426 35.0919 17.128 36.0929C16.7134 37.0938 16.5 38.1666 16.5 39.25C16.5 40.3334 16.7134 41.4062 17.128 42.4071C17.5426 43.4081 18.1503 44.3175 18.9164 45.0836C19.6825 45.8497 20.5919 46.4574 21.5929 46.872C22.5938 47.2866 23.6666 47.5 24.75 47.5Z" fill="#0098AA"/>
<path d="M53 22.6426V14.0167C58.8333 14.1918 71.9848 14.4368 77.9242 14.0167C83.8636 13.5966 87.1162 21.1936 88 25.0447V45H78.9848V25.0447V24.5195C78.9848 24.0994 78.6313 23.6443 78.4545 23.4693L77.3939 22.9441L76.3333 22.6426H53Z" fill="white" stroke="white"/>
<g clip-path="url(#clip0_1075_106476)">
<path d="M74 50C80.6304 50 86.9893 47.3661 91.6777 42.6777C96.3661 37.9893 99 31.6304 99 25C99 18.3696 96.3661 12.0107 91.6777 7.32233C86.9893 2.63392 80.6304 0 74 0C67.3696 0 61.0107 2.63392 56.3223 7.32233C51.6339 12.0107 49 18.3696 49 25C49 31.6304 51.6339 37.9893 56.3223 42.6777C61.0107 47.3661 67.3696 50 74 50ZM71.6562 33.5938V27.3438H65.4062C64.1074 27.3438 63.0625 26.2988 63.0625 25C63.0625 23.7012 64.1074 22.6562 65.4062 22.6562H71.6562V16.4062C71.6562 15.1074 72.7012 14.0625 74 14.0625C75.2988 14.0625 76.3438 15.1074 76.3438 16.4062V22.6562H82.5938C83.8926 22.6562 84.9375 23.7012 84.9375 25C84.9375 26.2988 83.8926 27.3438 82.5938 27.3438H76.3438V33.5938C76.3438 34.8926 75.2988 35.9375 74 35.9375C72.7012 35.9375 71.6562 34.8926 71.6562 33.5938Z" fill="#0098AA"/>
</g>
<defs>
<clipPath id="clip0_1075_106476">
<rect width="50" height="50" fill="white" transform="translate(49)"/>
</clipPath>
</defs>
</svg>
