<svg width="88" height="78" viewBox="0 0 88 78" fill="none" xmlns="http://www.w3.org/2000/svg">
<path d="M77 8.75C78.5125 8.75 79.75 9.9875 79.75 11.5V66.4656L78.8906 65.3484L55.5156 35.0984C54.7422 34.0844 53.5219 33.5 52.25 33.5C50.9781 33.5 49.775 34.0844 48.9844 35.0984L34.7188 53.5578L29.4766 46.2188C28.7031 45.1359 27.4656 44.5 26.125 44.5C24.7844 44.5 23.5469 45.1359 22.7734 46.2359L9.02344 65.4859L8.25 66.5516V66.5V11.5C8.25 9.9875 9.4875 8.75 11 8.75H77ZM11 0.5C4.93281 0.5 0 5.43281 0 11.5V66.5C0 72.5672 4.93281 77.5 11 77.5H77C83.0672 77.5 88 72.5672 88 66.5V11.5C88 5.43281 83.0672 0.5 77 0.5H11ZM24.75 33.5C25.8334 33.5 26.9062 33.2866 27.9071 32.872C28.9081 32.4574 29.8175 31.8497 30.5836 31.0836C31.3497 30.3175 31.9574 29.4081 32.372 28.4071C32.7866 27.4062 33 26.3334 33 25.25C33 24.1666 32.7866 23.0938 32.372 22.0929C31.9574 21.0919 31.3497 20.1825 30.5836 19.4164C29.8175 18.6503 28.9081 18.0426 27.9071 17.628C26.9062 17.2134 25.8334 17 24.75 17C23.6666 17 22.5938 17.2134 21.5929 17.628C20.5919 18.0426 19.6825 18.6503 18.9164 19.4164C18.1503 20.1825 17.5426 21.0919 17.128 22.0929C16.7134 23.0938 16.5 24.1666 16.5 25.25C16.5 26.3334 16.7134 27.4062 17.128 28.4071C17.5426 29.4081 18.1503 30.3175 18.9164 31.0836C19.6825 31.8497 20.5919 32.4574 21.5929 32.872C22.5938 33.2866 23.6666 33.5 24.75 33.5Z" fill="#0098AA"/>
</svg>
