<svg width="24" height="24" viewBox="0 0 24 24" fill="none" xmlns="http://www.w3.org/2000/svg">
<path d="M6.66365 23.7953C6.48061 23.9185 6.25666 23.9653 6.0396 23.9256C5.82254 23.886 5.62956 23.7631 5.50185 23.5832C5.44003 23.492 5.39715 23.3893 5.37575 23.2813C5.35436 23.1732 5.35488 23.0619 5.3773 22.954C5.39971 22.8462 5.44356 22.7439 5.50623 22.6533C5.56891 22.5627 5.64914 22.4856 5.74218 22.4265L10.0471 19.666L11.2633 20.5288L6.66365 23.7953ZM18.6329 22.9543C18.6665 23.1169 18.6504 23.2857 18.5866 23.439C18.5229 23.5922 18.4145 23.7228 18.2756 23.8136C18.1367 23.9044 17.9737 23.9513 17.8077 23.9482C17.6418 23.9451 17.4806 23.8921 17.3452 23.7961L5.33349 15.2711C5.26025 15.2192 5.17254 15.1916 5.08276 15.1922C4.99297 15.1928 4.90565 15.2216 4.83313 15.2745C4.32563 15.6057 3.72893 15.7737 3.12319 15.7559C2.51744 15.738 1.93166 15.5352 1.44454 15.1747C0.789143 14.7448 0.311836 14.0919 0.101103 13.3369C0.000265479 13.0071 -0.025563 12.659 0.0255075 12.3179C0.0765781 11.9769 0.203255 11.6515 0.39627 11.3658C0.589284 11.08 0.843752 10.841 1.14105 10.6662C1.43835 10.4914 1.77097 10.3854 2.11455 10.3557C2.89338 10.2683 3.67751 10.4662 4.32163 10.9126C4.83797 11.2296 5.245 11.6969 5.48805 12.2518C5.73111 12.8068 5.79856 13.4228 5.68134 14.0172C5.65932 14.1043 5.66526 14.1962 5.69832 14.2798C5.73138 14.3633 5.78988 14.4344 5.86555 14.4829L18.2692 22.4261C18.3623 22.4852 18.4424 22.5624 18.5049 22.6531C18.5674 22.7439 18.611 22.8463 18.6329 22.9543ZM22.5656 15.1739C22.0783 15.5343 21.4924 15.7369 20.8866 15.7546C20.2808 15.7723 19.684 15.6042 19.1766 15.2728C19.104 15.2199 19.0167 15.1911 18.9269 15.1905C18.8372 15.1898 18.7494 15.2175 18.6762 15.2694L13.9369 18.634L12.8008 17.9057L18.1446 14.4786C18.2201 14.4301 18.2785 14.3592 18.3115 14.2758C18.3446 14.1924 18.3506 14.1008 18.3288 14.0138C18.2139 13.4193 18.2826 12.8039 18.5258 12.2494C18.769 11.6949 19.1751 11.2274 19.6902 10.9092C21.0611 9.98517 22.8235 10.1891 23.6156 11.3625C24.4077 12.5358 23.936 14.2498 22.5656 15.1739Z" fill="#F9F9F9"/>
<path d="M8.07295 13.3322L7.90159 12.4754H16.1096L15.9382 13.3322H8.07295ZM6.43649 0.908799C6.84474 0.907753 7.24882 0.990907 7.62349 1.15307C7.99815 1.31523 8.33535 1.55291 8.61401 1.85126C8.66163 1.90161 8.72075 1.93966 8.7863 1.96215C8.85185 1.98463 8.92188 1.99087 8.99037 1.98034C9.05887 1.96981 9.12379 1.94282 9.17956 1.90168C9.23533 1.86055 9.28029 1.80649 9.31058 1.74416C9.5553 1.23735 9.93798 0.809804 10.4147 0.51062C10.8914 0.211435 11.4428 0.0527344 12.0056 0.0527344C12.5684 0.0527344 13.1198 0.211435 13.5965 0.51062C14.0732 0.809804 14.4559 1.23735 14.7006 1.74416C14.7309 1.80649 14.7759 1.86055 14.8316 1.90168C14.8874 1.94282 14.9523 1.96981 15.0208 1.98034C15.0893 1.99087 15.1593 1.98463 15.2249 1.96215C15.2904 1.93966 15.3496 1.90161 15.3972 1.85126C15.6758 1.55291 16.013 1.31523 16.3877 1.15307C16.7624 0.990907 17.1664 0.907753 17.5747 0.908799C18.37 0.908799 19.1328 1.22474 19.6951 1.78711C20.2575 2.34949 20.5734 3.11223 20.5734 3.90755C20.5734 4.70286 20.2575 5.46561 19.6951 6.02798C19.1328 6.59036 18.37 6.9063 17.5747 6.9063C17.4759 6.90627 17.3802 6.94038 17.3037 7.00283C17.2272 7.06528 17.1746 7.15225 17.1549 7.24901L16.281 11.6186H14.6415L15.0001 9.10909L14.1518 8.98743L13.7761 11.6186H12.434V6.9063H11.5772V11.6186H10.235L9.85935 8.98743L9.01113 9.10909L9.3697 11.6186H7.73024L6.85632 7.24901C6.83657 7.15225 6.78399 7.06528 6.70748 7.00283C6.63098 6.94038 6.53525 6.90627 6.43649 6.9063C5.64117 6.9063 4.87843 6.59036 4.31606 6.02798C3.75368 5.46561 3.43774 4.70286 3.43774 3.90755C3.43774 3.11223 3.75368 2.34949 4.31606 1.78711C4.87843 1.22474 5.64117 0.908799 6.43649 0.908799Z" fill="#F9F9F9"/>
</svg>
