<svg width="24" height="22" viewBox="0 0 24 22" fill="none" xmlns="http://www.w3.org/2000/svg">
<path d="M17.7141 3.96406L23.4703 9.72031C23.8078 10.0578 24 10.5219 24 11C24 11.4781 23.8078 11.9422 23.4703 12.2797L17.7141 18.0359C17.4141 18.3359 17.0109 18.5 16.5891 18.5C15.7125 18.5 15 17.7875 15 16.9109V14H9C8.17031 14 7.5 13.3297 7.5 12.5V9.5C7.5 8.67031 8.17031 8 9 8H15V5.08906C15 4.2125 15.7125 3.5 16.5891 3.5C17.0109 3.5 17.4141 3.66875 17.7141 3.96406ZM7.5 3.5H4.5C3.67031 3.5 3 4.17031 3 5V17C3 17.8297 3.67031 18.5 4.5 18.5H7.5C8.32969 18.5 9 19.1703 9 20C9 20.8297 8.32969 21.5 7.5 21.5H4.5C2.01562 21.5 0 19.4844 0 17V5C0 2.51562 2.01562 0.5 4.5 0.5H7.5C8.32969 0.5 9 1.17031 9 2C9 2.82969 8.32969 3.5 7.5 3.5Z" fill="#F9F9F9" fill-opacity="0.8"/>
</svg>
