<svg width="24" height="18" viewBox="0 0 24 18" fill="none" xmlns="http://www.w3.org/2000/svg">
<path d="M6.85714 2.57059C6.85714 1.38666 5.89821 0.427734 4.71429 0.427734H2.14286C0.958929 0.427734 0 1.38666 0 2.57059V5.14202C0 6.32595 0.958929 7.28488 2.14286 7.28488H4.71429C5.89821 7.28488 6.85714 6.32595 6.85714 5.14202V2.57059ZM6.85714 12.8563C6.85714 11.6724 5.89821 10.7134 4.71429 10.7134H2.14286C0.958929 10.7134 0 11.6724 0 12.8563V15.4277C0 16.6117 0.958929 17.5706 2.14286 17.5706H4.71429C5.89821 17.5706 6.85714 16.6117 6.85714 15.4277V12.8563ZM8.57143 2.57059V5.14202C8.57143 6.32595 9.53036 7.28488 10.7143 7.28488H13.2857C14.4696 7.28488 15.4286 6.32595 15.4286 5.14202V2.57059C15.4286 1.38666 14.4696 0.427734 13.2857 0.427734H10.7143C9.53036 0.427734 8.57143 1.38666 8.57143 2.57059ZM15.4286 12.8563C15.4286 11.6724 14.4696 10.7134 13.2857 10.7134H10.7143C9.53036 10.7134 8.57143 11.6724 8.57143 12.8563V15.4277C8.57143 16.6117 9.53036 17.5706 10.7143 17.5706H13.2857C14.4696 17.5706 15.4286 16.6117 15.4286 15.4277V12.8563ZM17.1429 2.57059V5.14202C17.1429 6.32595 18.1018 7.28488 19.2857 7.28488H21.8571C23.0411 7.28488 24 6.32595 24 5.14202V2.57059C24 1.38666 23.0411 0.427734 21.8571 0.427734H19.2857C18.1018 0.427734 17.1429 1.38666 17.1429 2.57059ZM24 12.8563C24 11.6724 23.0411 10.7134 21.8571 10.7134H19.2857C18.1018 10.7134 17.1429 11.6724 17.1429 12.8563V15.4277C17.1429 16.6117 18.1018 17.5706 19.2857 17.5706H21.8571C23.0411 17.5706 24 16.6117 24 15.4277V12.8563Z" fill="#F9F9F9"/>
</svg>
