<svg width="22" height="26" viewBox="0 0 22 26" fill="none" xmlns="http://www.w3.org/2000/svg">
<path d="M18.5836 9.126V7.58332C18.5836 3.39518 15.1885 0 11.0003 0C6.81213 0 3.41699 3.39518 3.41699 7.58332V9.126C1.44536 9.98649 0.169836 11.9321 0.166992 14.0833V20.5833C0.170547 23.5734 2.59357 25.9964 5.58362 26H16.4169C19.407 25.9964 21.83 23.5734 21.8336 20.5833V14.0833C21.8308 11.9321 20.5553 9.98649 18.5836 9.126ZM12.0836 18.4167C12.0836 19.015 11.5986 19.5 11.0003 19.5C10.402 19.5 9.91699 19.015 9.91699 18.4167V16.25C9.91699 15.6517 10.402 15.1667 11.0003 15.1667C11.5986 15.1667 12.0836 15.6517 12.0836 16.25V18.4167ZM16.417 8.66668H5.58362V7.58337C5.58362 4.59184 8.00873 2.16668 11.0003 2.16668C13.9919 2.16668 16.417 4.59179 16.417 7.58337V8.66668Z" fill="#0098AA"/>
</svg>
