<svg width="24" height="24" viewBox="0 0 24 24" fill="none" xmlns="http://www.w3.org/2000/svg">
<path d="M3.42857 0.0175781C1.5375 0.0175781 0 1.55291 0 3.44131V20.56C0 22.4484 1.5375 23.9837 3.42857 23.9837H20.5714C22.4625 23.9837 24 22.4484 24 20.56V3.44131C24 1.55291 22.4625 0.0175781 20.5714 0.0175781H3.42857ZM6.85714 10.2888C7.80536 10.2888 8.57143 11.0538 8.57143 12.0006V17.1362C8.57143 18.0831 7.80536 18.8481 6.85714 18.8481C5.90893 18.8481 5.14286 18.0831 5.14286 17.1362V12.0006C5.14286 11.0538 5.90893 10.2888 6.85714 10.2888ZM10.2857 6.86504C10.2857 5.91816 11.0518 5.15317 12 5.15317C12.9482 5.15317 13.7143 5.91816 13.7143 6.86504V17.1362C13.7143 18.0831 12.9482 18.8481 12 18.8481C11.0518 18.8481 10.2857 18.0831 10.2857 17.1362V6.86504ZM17.1429 13.7125C18.0911 13.7125 18.8571 14.4775 18.8571 15.4244V17.1362C18.8571 18.0831 18.0911 18.8481 17.1429 18.8481C16.1946 18.8481 15.4286 18.0831 15.4286 17.1362V15.4244C15.4286 14.4775 16.1946 13.7125 17.1429 13.7125Z" fill="#F9F9F9"/>
</svg>
