<svg width="24" height="24" viewBox="0 0 24 24" fill="none" xmlns="http://www.w3.org/2000/svg">
<path d="M19.4996 9.74857C19.4996 11.8998 18.8013 13.887 17.6249 15.4993L23.5584 21.4375C24.1442 22.0233 24.1442 22.9748 23.5584 23.5606C22.9725 24.1465 22.0211 24.1465 21.4352 23.5606L15.5017 17.6224C13.8895 18.8035 11.9023 19.4971 9.75101 19.4971C4.36586 19.4971 0.00244141 15.1337 0.00244141 9.74857C0.00244141 4.36342 4.36586 0 9.75101 0C15.1362 0 19.4996 4.36342 19.4996 9.74857ZM9.75101 16.4976C10.6373 16.4976 11.5149 16.323 12.3337 15.9838C13.1526 15.6447 13.8966 15.1475 14.5233 14.5208C15.15 13.8941 15.6471 13.1501 15.9863 12.3313C16.3255 11.5125 16.5 10.6349 16.5 9.74857C16.5 8.86228 16.3255 7.98466 15.9863 7.16584C15.6471 6.34701 15.15 5.603 14.5233 4.9763C13.8966 4.3496 13.1526 3.85247 12.3337 3.5133C11.5149 3.17413 10.6373 2.99956 9.75101 2.99956C8.86472 2.99956 7.98711 3.17413 7.16828 3.5133C6.34945 3.85247 5.60545 4.3496 4.97874 4.9763C4.35204 5.603 3.85491 6.34701 3.51574 7.16584C3.17657 7.98466 3.002 8.86228 3.002 9.74857C3.002 10.6349 3.17657 11.5125 3.51574 12.3313C3.85491 13.1501 4.35204 13.8941 4.97874 14.5208C5.60545 15.1475 6.34945 15.6447 7.16828 15.9838C7.98711 16.323 8.86472 16.4976 9.75101 16.4976Z" fill="#0098AA" fill-opacity="0.52"/>
</svg>
