<svg width="24" height="19" viewBox="0 0 24 19" fill="none" xmlns="http://www.w3.org/2000/svg">
<path d="M9.53674e-07 13.7571V17.0325C0.000452118 17.3799 0.133679 17.7129 0.370469 17.9585C0.607259 18.2041 0.928287 18.3423 1.26316 18.3427H8.84211C9.34445 18.3422 9.82607 18.1349 10.1813 17.7665C10.5365 17.398 10.7363 16.8985 10.7368 16.3774V15.0673H6.31579C5.58818 15.0662 4.88316 14.805 4.31956 14.3277C3.75595 13.8504 3.36824 13.1861 3.22175 12.4469H1.26316C0.928287 12.4473 0.607259 12.5855 0.370469 12.8311C0.133679 13.0767 0.000452118 13.4097 9.53674e-07 13.7571ZM12 15.0673H16.4215L16.4211 15.0679C16.126 15.4736 15.7443 15.803 15.306 16.0302C14.8678 16.2574 14.3847 16.3762 13.8947 16.3774H11.8836C11.9585 16.1677 11.9978 15.946 12 15.7223V15.0673ZM6.31579 13.7571H21.4737C21.976 13.7565 22.4576 13.5492 22.8129 13.1808C23.1681 12.8124 23.3679 12.3128 23.3684 11.7918V11.1367C23.5359 11.1367 23.6966 11.0676 23.815 10.9448C23.9335 10.8219 24 10.6553 24 10.4816C24 10.3078 23.9335 10.1412 23.815 10.0183C23.6966 9.89549 23.5359 9.82647 23.3684 9.82647H22.1053V5.89588C22.1053 5.72214 22.0387 5.55551 21.9203 5.43266C21.8018 5.3098 21.6412 5.24078 21.4737 5.24078H17.6842C17.5167 5.24078 17.3561 5.3098 17.2376 5.43266C17.1192 5.55551 17.0526 5.72214 17.0526 5.89588V9.82647H16.4211V3.93059C16.4211 3.75684 16.3545 3.59022 16.2361 3.46736C16.1176 3.34451 15.957 3.27549 15.7895 3.27549H13.8402L13.2484 0.513073C13.2171 0.367561 13.139 0.237442 13.0269 0.144172C12.9147 0.0509026 12.7753 5.03205e-05 12.6316 0L10.7368 0C10.5693 0 10.4087 0.0690192 10.2902 0.191874C10.1718 0.314729 10.1053 0.481355 10.1053 0.655098C10.1053 0.828841 10.1718 0.995467 10.2902 1.11832C10.4087 1.24118 10.5693 1.3102 10.7368 1.3102H12.1252L12.5461 3.27549H12C11.8325 3.27549 11.6719 3.34451 11.5534 3.46736C11.435 3.59022 11.3684 3.75684 11.3684 3.93059V9.82647H10.3856C10.6131 9.42998 10.7343 8.97766 10.7368 8.51627V5.89588C10.7368 5.72214 10.6703 5.55551 10.5519 5.43266C10.4334 5.3098 10.2728 5.24078 10.1053 5.24078H5.36842C4.94966 5.24078 4.54805 5.41333 4.25194 5.72047C3.95583 6.0276 3.78947 6.44417 3.78947 6.87853C3.78947 7.31288 3.95583 7.72945 4.25194 8.03659C4.54805 8.34373 4.94966 8.51627 5.36842 8.51627H5.68421C5.68673 8.97766 5.808 9.42998 6.03549 9.82647L4.42105 9.82647C4.25355 9.82647 4.0929 9.89549 3.97446 10.0183C3.85602 10.1412 3.78947 10.3078 3.78947 10.4816C3.78947 10.6553 3.85602 10.8219 3.97446 10.9448C4.0929 11.0676 4.25355 11.1367 4.42105 11.1367V11.7918C4.42161 12.3128 4.6214 12.8124 4.97662 13.1808C5.33183 13.5492 5.81344 13.7565 6.31579 13.7571ZM5.36842 6.55098H5.68421V7.20608H5.36842C5.28467 7.20608 5.20435 7.17157 5.14512 7.11014C5.0859 7.04871 5.05263 6.9654 5.05263 6.87853C5.05263 6.79166 5.0859 6.70834 5.14512 6.64692C5.20435 6.58549 5.28467 6.55098 5.36842 6.55098ZM12.8267 4.58569L13.1073 5.89588H12.6316V4.58569H12.8267ZM15.1579 4.58569V5.89588L14.4016 5.89588L14.1209 4.58569L15.1579 4.58569ZM20.8421 6.55098V7.20608H18.3158V6.55098H20.8421Z" fill="#F9F9F9"/>
</svg>
