<svg width="24" height="20" viewBox="0 0 24 20" fill="none" xmlns="http://www.w3.org/2000/svg">
<path d="M11.6435 5.30769C11.9147 5.06706 12.0217 4.68891 11.8803 4.35279C11.7925 4.15035 11.697 3.95173 11.59 3.76074L11.4716 3.55448C11.3571 3.3635 11.231 3.17634 11.0973 2.99682C10.8796 2.70653 10.4976 2.61104 10.1539 2.72563L9.07674 3.08085C8.66804 2.74472 8.19822 2.46971 7.69403 2.28255L7.46104 1.17486C7.38846 0.819635 7.11345 0.536983 6.75441 0.494968C6.50231 0.460591 6.2464 0.445312 5.98666 0.445312H5.95992C5.70019 0.445312 5.44428 0.460591 5.19218 0.491148C4.83314 0.533164 4.55812 0.819635 4.48555 1.17104L4.25255 2.28255C3.74454 2.47353 3.27855 2.74472 2.86985 3.08085L1.7889 2.72945C1.44513 2.61486 1.06317 2.71035 0.84545 3.00064C0.711764 3.18016 0.585716 3.36732 0.467308 3.5583L0.352719 3.76074C0.24577 3.95173 0.150279 4.15035 0.0624279 4.35661C-0.0788981 4.68891 0.0280513 5.06706 0.299244 5.31151L1.1472 6.0678C1.10518 6.32371 1.08227 6.59108 1.08227 6.86228C1.08227 7.13347 1.10518 7.40084 1.1472 7.66058L0.299244 8.41686C0.0280513 8.6575 -0.0788981 9.03564 0.0624279 9.37177C0.150279 9.57421 0.24577 9.77283 0.352719 9.96763L0.467308 10.1663C0.581897 10.3611 0.707944 10.5444 0.84545 10.7239C1.06317 11.0142 1.44513 11.1097 1.7889 10.9951L2.86603 10.6399C3.27473 10.976 3.74454 11.251 4.24873 11.4382L4.48173 12.5497C4.5543 12.9049 4.82932 13.1876 5.18836 13.2296C5.44428 13.2601 5.70401 13.2754 5.96756 13.2754C6.23112 13.2754 6.49085 13.2601 6.74677 13.2296C7.10581 13.1876 7.38082 12.9011 7.4534 12.5497L7.68639 11.4382C8.1944 11.2472 8.6604 10.976 9.0691 10.6399L10.1462 10.9951C10.49 11.1097 10.872 11.0142 11.0897 10.7239C11.2234 10.5444 11.3494 10.3611 11.464 10.1663L11.5824 9.95999C11.6894 9.76901 11.7848 9.57039 11.8727 9.36795C12.014 9.03564 11.9071 8.6575 11.6359 8.41304L10.7879 7.65676C10.8299 7.39702 10.8529 7.12965 10.8529 6.85846C10.8529 6.58726 10.8299 6.31989 10.7879 6.06016L11.6359 5.30387L11.6435 5.30769ZM4.13796 6.86228C4.13796 6.37602 4.33113 5.90969 4.67496 5.56585C5.01879 5.22202 5.48513 5.02886 5.97138 5.02886C6.45764 5.02886 6.92397 5.22202 7.26781 5.56585C7.61164 5.90969 7.8048 6.37602 7.8048 6.86228C7.8048 7.34853 7.61164 7.81487 7.26781 8.1587C6.92397 8.50253 6.45764 8.6957 5.97138 8.6957C5.48513 8.6957 5.01879 8.50253 4.67496 8.1587C4.33113 7.81487 4.13796 7.34853 4.13796 6.86228ZM19.1376 19.257C19.3783 19.5281 19.7564 19.6351 20.0925 19.4938C20.295 19.4059 20.4936 19.3104 20.6846 19.2035L20.8908 19.0851C21.0818 18.9705 21.269 18.8444 21.4485 18.7107C21.7388 18.493 21.8343 18.1111 21.7197 17.7673L21.3645 16.6902C21.7006 16.2815 21.9756 15.8117 22.1628 15.3075L23.2743 15.0745C23.6295 15.0019 23.9121 14.7269 23.9542 14.3678C23.9847 14.1119 24 13.8522 24 13.5886C24 13.3251 23.9847 13.0653 23.9542 12.8094C23.9121 12.4504 23.6257 12.1754 23.2743 12.1028L22.1628 11.866C21.9718 11.358 21.7006 10.892 21.3645 10.4833L21.7197 9.40615C21.8343 9.06238 21.7388 8.68042 21.4485 8.4627C21.269 8.32901 21.0818 8.20296 20.8908 8.08456L20.6884 7.96997C20.4974 7.86302 20.2988 7.76753 20.0925 7.67968C19.7602 7.53835 19.3821 7.6453 19.1376 7.91649L18.3813 8.76445C18.1216 8.72243 17.8542 8.69952 17.583 8.69952C17.3118 8.69952 17.0445 8.72243 16.7847 8.76445L16.0284 7.91649C15.7878 7.6453 15.4097 7.53835 15.0735 7.67968C14.8711 7.76753 14.6725 7.86302 14.4777 7.96997L14.2791 8.08456C14.0843 8.19915 13.9009 8.32519 13.7214 8.4627C13.4311 8.68042 13.3356 9.06238 13.4502 9.40615L13.8054 10.4833C13.4693 10.892 13.1943 11.3618 13.0071 11.866L11.8956 12.0952C11.5404 12.1677 11.2577 12.4427 11.2157 12.8018C11.1852 13.0577 11.1699 13.3174 11.1699 13.581C11.1699 13.8445 11.1852 14.1043 11.2157 14.3602C11.2577 14.7192 11.5442 14.9943 11.8956 15.0668L13.0071 15.2998C13.1981 15.8078 13.4693 16.2738 13.8054 16.6825L13.4502 17.7597C13.3356 18.1034 13.4311 18.4854 13.7214 18.7031C13.9009 18.8368 14.0843 18.9628 14.2791 19.0774L14.4853 19.1958C14.6763 19.3028 14.8749 19.3983 15.0774 19.4861C15.4097 19.6275 15.7878 19.5205 16.0323 19.2493L16.7886 18.4014C17.0483 18.4434 17.3157 18.4663 17.5869 18.4663C17.858 18.4663 18.1254 18.4434 18.3852 18.4014L19.1414 19.2493L19.1376 19.257ZM17.583 11.7514C17.8238 11.7514 18.0622 11.7988 18.2847 11.891C18.5071 11.9831 18.7092 12.1181 18.8795 12.2884C19.0497 12.4586 19.1848 12.6608 19.2769 12.8832C19.369 13.1056 19.4165 13.344 19.4165 13.5848C19.4165 13.8256 19.369 14.064 19.2769 14.2864C19.1848 14.5089 19.0497 14.711 18.8795 14.8812C18.7092 15.0515 18.5071 15.1865 18.2847 15.2787C18.0622 15.3708 17.8238 15.4182 17.583 15.4182C17.3423 15.4182 17.1039 15.3708 16.8814 15.2787C16.659 15.1865 16.4569 15.0515 16.2866 14.8812C16.1164 14.711 15.9813 14.5089 15.8892 14.2864C15.797 14.064 15.7496 13.8256 15.7496 13.5848C15.7496 13.344 15.797 13.1056 15.8892 12.8832C15.9813 12.6608 16.1164 12.4586 16.2866 12.2884C16.4569 12.1181 16.659 11.9831 16.8814 11.891C17.1039 11.7988 17.3423 11.7514 17.583 11.7514Z" fill="#F9F9F9"/>
</svg>
