<svg width="24" height="18" viewBox="0 0 24 18" fill="none" xmlns="http://www.w3.org/2000/svg">
<path d="M19.5025 3.99805H4.50032C4.22428 3.99805 4.00024 4.22208 4.00024 4.49812V13.4995C4.00024 13.7755 4.22428 13.9995 4.50032 13.9995H19.5025C19.7786 13.9995 20.0026 13.7755 20.0026 13.4995V4.49812C20.0026 4.22208 19.7786 3.99805 19.5025 3.99805Z" fill="#F9F9F9"/>
<path d="M12.5319 16.0909C12.7669 17.217 13.6329 18.004 14.639 18.004H15.369C16.375 18.004 17.241 17.217 17.475 16.0909L17.7021 15.0039H12.3059L12.5319 16.0909Z" fill="#F9F9F9"/>
<path d="M6.52947 16.0909C6.76448 17.217 7.6305 18.004 8.63653 18.004H9.36655C10.3726 18.004 11.2386 17.217 11.4726 16.0909L11.6996 15.0039H6.30347L6.52947 16.0909Z" fill="#F9F9F9"/>
<path d="M0 8.63384V9.36386C0 10.3699 0.787021 11.2359 1.91305 11.4699L3.00008 11.6969V6.30078L1.91305 6.52679C0.787021 6.76179 0 7.62782 0 8.63384Z" fill="#F9F9F9"/>
<path d="M11.4736 1.9111C11.2386 0.785068 10.3726 -0.00195312 9.36655 -0.00195312H8.63653C7.6305 -0.00195312 6.76448 0.785068 6.52947 1.9111L6.30347 2.99813H11.6996L11.4736 1.9111Z" fill="#F9F9F9"/>
<path d="M17.476 1.9111C17.241 0.785068 16.375 -0.00195312 15.369 -0.00195312H14.639C13.6329 -0.00195312 12.7669 0.785068 12.5329 1.9111L12.3059 2.99813H17.7021L17.476 1.9111Z" fill="#F9F9F9"/>
<path d="M22.087 6.52679L21 6.30078V11.6969L22.087 11.4709C23.2131 11.2359 24.0001 10.3699 24.0001 9.36386V8.63384C24.0001 7.62782 23.2131 6.76179 22.087 6.52679Z" fill="#F9F9F9"/>
</svg>
