<svg width="24" height="24" viewBox="0 0 24 24" fill="none" xmlns="http://www.w3.org/2000/svg">
<path d="M23.2498 7.8109C23.3998 8.21879 23.2732 8.67357 22.9497 8.96425L20.9197 10.8115C20.9712 11.2006 20.9994 11.5991 20.9994 12.0023C20.9994 12.4055 20.9712 12.8041 20.9197 13.1932L22.9497 15.0404C23.2732 15.3311 23.3998 15.7859 23.2498 16.1938C23.0435 16.7517 22.795 17.2862 22.509 17.8019L22.2887 18.1817C21.9792 18.6974 21.6323 19.185 21.2525 19.6445C20.9759 19.982 20.5165 20.0945 20.1039 19.9633L17.4924 19.1334C16.8642 19.6163 16.1703 20.0195 15.4295 20.3243L14.8435 23.0014C14.7497 23.428 14.4215 23.7656 13.9902 23.8359C13.3432 23.9437 12.6774 24 11.9976 24C11.3178 24 10.652 23.9437 10.005 23.8359C9.5737 23.7656 9.24551 23.428 9.15174 23.0014L8.56569 20.3243C7.82492 20.0195 7.13103 19.6163 6.50278 19.1334L3.89602 19.968C3.48344 20.0992 3.02398 19.982 2.74736 19.6492C2.3676 19.1897 2.02066 18.7021 1.71122 18.1864L1.49087 17.8066C1.20487 17.2909 0.956388 16.7564 0.750098 16.1985C0.600068 15.7906 0.726655 15.3358 1.05016 15.0451L3.08024 13.1979C3.02867 12.8041 3.00054 12.4055 3.00054 12.0023C3.00054 11.5991 3.02867 11.2006 3.08024 10.8115L1.05016 8.96425C0.726655 8.67357 0.600068 8.21879 0.750098 7.8109C0.956388 7.25298 1.20487 6.7185 1.49087 6.20277L1.71122 5.82301C2.02066 5.30729 2.3676 4.81969 2.74736 4.36023C3.02398 4.02266 3.48344 3.91014 3.89602 4.04141L6.50747 4.87126C7.13572 4.38836 7.82961 3.98515 8.57037 3.68041L9.15643 1.00332C9.2502 0.576675 9.57838 0.239109 10.0097 0.168783C10.6567 0.056261 11.3225 0 12.0023 0C12.6821 0 13.3479 0.056261 13.9949 0.164095C14.4262 0.234421 14.7544 0.571987 14.8482 0.998632L15.4342 3.67572C16.175 3.98046 16.8689 4.38367 17.4971 4.86658L20.1086 4.03673C20.5211 3.90545 20.9806 4.02266 21.2572 4.35554C21.637 4.815 21.9839 5.3026 22.2934 5.81832L22.5137 6.19809C22.7997 6.71381 23.0482 7.24829 23.2545 7.80621L23.2498 7.8109ZM12.0023 15.7531C12.9971 15.7531 13.9511 15.3579 14.6545 14.6545C15.3579 13.9511 15.753 12.9971 15.753 12.0023C15.753 11.0076 15.3579 10.0536 14.6545 9.35018C13.9511 8.64678 12.9971 8.25161 12.0023 8.25161C11.0075 8.25161 10.0535 8.64678 9.35013 9.35018C8.64673 10.0536 8.25156 11.0076 8.25156 12.0023C8.25156 12.9971 8.64673 13.9511 9.35013 14.6545C10.0535 15.3579 11.0075 15.7531 12.0023 15.7531Z" fill="#0098AA"/>
</svg>
