<svg width="24" height="24" viewBox="0 0 24 24" fill="none" xmlns="http://www.w3.org/2000/svg">
<path fill-rule="evenodd" clip-rule="evenodd" d="M7.70312 8.59139C7.46289 8.60116 7.28125 8.65002 7.15625 8.73405C7.08594 8.78095 7.0332 8.84348 7 8.91579C6.96289 8.99591 6.94531 9.09363 6.94922 9.20697C6.95898 9.53724 7.13086 9.96912 7.46484 10.4655L7.46875 10.4733L8.55469 12.195C8.99023 12.8868 9.44531 13.5923 10.0117 14.1101C10.5566 14.6085 11.2168 14.9446 12.0898 14.9485C13.0352 14.9505 13.7285 14.6007 14.2891 14.075C14.873 13.5278 15.334 12.7774 15.7891 12.0289L17.0098 10.016C17.2383 9.4962 17.3203 9.14834 17.2676 8.9451C17.2363 8.82394 17.1035 8.76336 16.875 8.75359C16.8262 8.75164 16.7773 8.74968 16.7266 8.75164C16.6719 8.75359 16.6152 8.7575 16.5566 8.76141C16.5234 8.76532 16.4922 8.76141 16.4629 8.75554C16.3535 8.76141 16.2422 8.75359 16.1289 8.73796L16.5469 6.88534C13.4434 7.3739 11.123 5.06791 7.8418 6.42415L8.07813 8.60702C7.94336 8.61288 7.81836 8.60702 7.70312 8.59139ZM9.66797 17.9658C9.07031 17.2858 9.01953 16.5725 9.66797 15.8181C10.4023 16.0038 11.0762 16.3184 11.6973 16.7444C11.8457 16.6956 12.0117 16.6839 12.1738 16.7073C12.832 16.2324 13.6797 16.0448 14.418 15.6911C15.293 16.5432 15.1992 17.3288 14.3379 18.0596C13.8184 17.9404 13.3262 17.7509 12.8574 17.5027C12.8516 17.6297 12.8203 17.7704 12.7578 17.9268L13.7148 21.2489C14.4551 19.6934 15.2246 18.1476 15.4004 16.381C15.1074 16.037 14.7969 15.5817 14.5273 15.1869C14.4473 15.0697 14.373 14.9602 14.3008 14.8567C13.709 15.2905 12.998 15.5621 12.0879 15.5582C11.1094 15.5563 10.3555 15.2065 9.73242 14.6788C9.72852 14.6847 9.72461 14.6925 9.7207 14.6984C9.61914 14.8391 9.50586 15.0052 9.38281 15.185C9.15234 15.5231 8.89453 15.9022 8.64063 16.2207C8.96875 18.2687 9.75391 19.709 10.4648 21.247L11.4219 17.9248C11.2988 17.7177 11.2422 17.5379 11.2344 17.3815C10.7441 17.661 10.2168 17.8427 9.66797 17.9658ZM14.6797 14.5459C14.7559 14.6554 14.8418 14.7804 14.9316 14.9114C15.0996 15.1576 15.2852 15.4292 15.4687 15.6774C16.7383 16.7738 20.3691 17.0004 21.7266 17.7587C22.1582 17.9991 22.5508 18.3078 22.8652 18.7221C23.3418 19.3514 23.6348 20.1761 23.7148 21.2216L24 22.4977C23.9297 23.2364 23.5117 23.6624 22.6855 23.7269H12.0898H1.31445C0.490234 23.6644 0.0703125 23.2384 0 22.4977L0.285156 21.2216C0.365234 20.1761 0.658203 19.3533 1.13477 18.7221C1.44922 18.3059 1.83984 17.9991 2.27344 17.7587C3.5625 17.0395 6.90039 16.7992 8.32227 15.8377C8.54492 15.5504 8.77344 15.2123 8.98047 14.9114C9.10742 14.7238 9.22656 14.5498 9.32617 14.413C9.34375 14.3896 9.36328 14.3701 9.38672 14.3544C8.86133 13.8151 8.43945 13.1623 8.03711 12.5213L6.95312 10.7958C6.55664 10.2036 6.35156 9.66426 6.33789 9.22065C6.33203 9.01155 6.36719 8.82199 6.44336 8.65588C6.52344 8.48195 6.64844 8.33538 6.81641 8.22204C6.89453 8.16927 6.98242 8.12433 7.08008 8.0872C7.00977 7.15112 6.98438 5.97272 7.0293 4.98583C7.05273 4.75132 7.09766 4.51682 7.16211 4.28426C7.43945 3.29347 8.13477 2.49614 8.99414 1.94895C9.29687 1.75549 9.62891 1.59524 9.98047 1.46821C10.6035 1.24152 10.3008 0.287857 10.9922 0.272223C12.6113 0.235093 15.2637 1.60501 16.2988 2.72478C16.9004 3.3775 17.2793 4.23931 17.3594 5.38254L17.291 8.19663C17.5918 8.28848 17.7832 8.47804 17.8633 8.78681C17.9512 9.1288 17.8555 9.6115 17.5664 10.2681C17.5605 10.2798 17.5547 10.2916 17.5488 10.3033L16.3125 12.3396C15.8359 13.1233 15.3535 13.9108 14.707 14.5147L14.6797 14.5459Z" fill="#F9F9F9"/>
</svg>
