<svg width="32" height="32" viewBox="0 0 38 33" xmlns="http://www.w3.org/2000/svg">
    <path id="Vector"
        d="M1.59687 0C0.71194 0 0 0.677925 0 1.52058C0 2.36323 0.71194 3.04116 1.59687 3.04116H4.62428C4.87712 3.04116 5.09669 3.21222 5.14992 3.45298L8.5832 20.6229C9.01569 22.777 10.9918 24.3293 13.2873 24.3293H32.4698C33.3547 24.3293 34.0667 23.6513 34.0667 22.8087C34.0667 21.966 33.3547 21.2881 32.4698 21.2881H13.2873C12.5222 21.2881 11.8635 20.7686 11.7171 20.0526L11.3578 18.247H30.5535C32.7226 18.247 34.6189 16.8658 35.1778 14.87L37.9058 5.22066C38.3649 3.61138 37.0874 2.02744 35.3375 2.02744H23.9531V8.49624L25.4835 7.03902C26.1089 6.44346 27.1203 6.44346 27.739 7.03902C28.3578 7.63458 28.3645 8.59761 27.739 9.18683L23.4807 13.2417C22.8553 13.8373 21.8439 13.8373 21.2251 13.2417L16.9668 9.18683C16.3414 8.59127 16.3414 7.62824 16.9668 7.03902C17.5922 6.44979 18.6036 6.44346 19.2224 7.03902L20.7527 8.49624V2.02744H7.99103C7.38555 0.810976 6.09474 0 4.62428 0H1.59687ZM11.7104 32.439C12.5575 32.439 13.3698 32.1186 13.9687 31.5483C14.5677 30.978 14.9042 30.2044 14.9042 29.3979C14.9042 28.5913 14.5677 27.8178 13.9687 27.2474C13.3698 26.6771 12.5575 26.3567 11.7104 26.3567C10.8634 26.3567 10.051 26.6771 9.45209 27.2474C8.85315 27.8178 8.51667 28.5913 8.51667 29.3979C8.51667 30.2044 8.85315 30.978 9.45209 31.5483C10.051 32.1186 10.8634 32.439 11.7104 32.439ZM34.0667 29.3979C34.0667 28.5913 33.7302 27.8178 33.1312 27.2474C32.5323 26.6771 31.72 26.3567 30.8729 26.3567C30.0259 26.3567 29.2135 26.6771 28.6146 27.2474C28.0156 27.8178 27.6792 28.5913 27.6792 29.3979C27.6792 30.2044 28.0156 30.978 28.6146 31.5483C29.2135 32.1186 30.0259 32.439 30.8729 32.439C31.72 32.439 32.5323 32.1186 33.1312 31.5483C33.7302 30.978 34.0667 30.2044 34.0667 29.3979Z" />
</svg>