<svg width="32" height="32" viewBox="0 0 32 32" xmlns="http://www.w3.org/2000/svg">
    <path id="Vector"
        d="M5.79021 10.0379L6.66611 9.14526C7.64308 8.16842 9.26013 8.16842 10.2708 9.21263L10.3045 9.26316C11.1298 10.1053 12.2247 10.5095 13.4207 10.6274C15.0546 10.7789 16.6379 11.6547 17.6823 13.2379C18.8277 15.0568 18.8108 17.4821 17.6149 19.2842C17.1638 19.9974 16.5572 20.5994 15.8405 21.0451C15.1238 21.4907 14.3156 21.7685 13.4763 21.8576C12.637 21.9467 11.7885 21.8448 10.9942 21.5596C10.1999 21.2743 9.48037 20.8131 8.88956 20.2105C7.94628 19.2842 7.40726 18.0884 7.27251 16.8421C7.13775 15.6126 6.64927 14.4505 5.79021 13.5916C4.81325 12.6316 4.81325 11.0147 5.79021 10.0379ZM12.8648 23.5789C10.894 23.5789 9.058 22.8211 7.69361 21.4232C6.51452 20.2105 5.77337 18.6947 5.58808 17.0442C5.53755 16.5389 5.38595 15.8821 4.98169 15.2758C3.97103 16.6737 3.36464 18.3579 3.36464 20.2105C3.36464 22.9726 4.71218 25.4147 6.78402 26.9474H28.631V25.2632C28.631 19.2 24.6052 14.0632 19.0972 12.3789C20.5963 14.7368 20.5626 17.8863 19.0298 20.2105C17.6823 22.3158 15.3577 23.5789 12.8648 23.5789ZM21.5227 9.36421H23.662C25.1274 9.36421 26.4076 10.3916 26.4076 12.2274V13.4737H28.5131V11.7895C28.5131 9.26316 26.2728 7.34316 23.662 7.34316H21.5227C20.1247 7.34316 18.9287 5.9621 18.9287 4.54737C18.9287 3.13263 20.1247 2.08842 21.5227 2.08842V0C18.9287 0 16.84 2.08842 16.84 4.68211C16.84 7.27579 18.9287 9.36421 21.5227 9.36421ZM4.20685 9.34737C4.30792 9.17895 4.44267 9.01053 4.59427 8.8421L5.47017 7.96632C5.62177 7.81474 5.79021 7.69684 5.95865 7.57895L3.58362 5.17053C3.81943 4.71579 3.73521 4.12632 3.36464 3.73895C3.12343 3.50417 2.8001 3.37281 2.46347 3.37281C2.12685 3.37281 1.80352 3.50417 1.5623 3.73895C1.32649 3.97474 1.20858 4.26105 1.19173 4.56421C0.888534 4.58105 0.602182 4.69895 0.366363 4.93474C-0.122121 5.42316 -0.122121 6.23158 0.366363 6.73684C0.75378 7.10737 1.32648 7.19158 1.79812 6.95579L4.20685 9.34737ZM27.6035 4.02526C28.4626 3.16632 29.0016 2.00421 29.0016 0.707369H26.8961C26.8961 2.10526 25.717 3.28421 24.3189 3.28421V5.37263C27.4519 5.37263 29.9112 7.93263 29.9112 11.0653V15.1579H31.9999V11.0653C32.0083 9.59614 31.5997 8.15478 30.8214 6.90861C30.0432 5.66244 28.9274 4.66261 27.6035 4.02526ZM5.04907 32H28.631C30.5007 32 31.9999 30.5011 31.9999 28.6316H1.68021C1.68021 29.5249 2.03515 30.3817 2.66693 31.0134C3.29871 31.6451 4.15559 32 5.04907 32Z" />
</svg>