<svg xmlns="http://www.w3.org/2000/svg" width="24" height="24" viewBox="0 0 19 21" fill="none">
    <path
        d="M6.75603 0.221055C7.08683 -0.0783586 7.6 -0.074257 7.9308 0.225157C9.10134 1.28746 10.1998 2.4318 11.2261 3.67047C11.6926 3.07984 12.2228 2.4359 12.7953 1.9109C13.1304 1.60738 13.6478 1.60738 13.9828 1.915C15.4502 3.26852 16.6929 5.0568 17.5665 6.75484C18.4275 8.42828 19 10.1386 19 11.3445C19 16.5781 14.7674 20.9996 9.5 20.9996C4.17321 20.9996 0 16.574 0 11.3404C0 9.76539 0.754911 7.84176 1.92545 5.93863C3.10871 4.0068 4.77969 1.99293 6.75603 0.221055ZM9.5721 17.0621C10.6451 17.0621 11.5951 16.775 12.49 16.2007C14.2754 14.9949 14.7547 12.5832 13.6817 10.6882C13.4908 10.3191 13.0031 10.2945 12.7275 10.6062L11.6587 11.808C11.3788 12.1197 10.8741 12.1115 10.6112 11.7875C9.91138 10.9261 8.66027 9.38805 7.94777 8.51442C7.68058 8.18629 7.17165 8.18219 6.90022 8.51031C5.46674 10.2535 4.74576 11.3527 4.74576 12.5873C4.75 15.3968 6.89598 17.0621 9.5721 17.0621Z"
        fill="#FFCC36" />
</svg>