<svg width="91" height="92" viewBox="0 0 91 92" fill="none" xmlns="http://www.w3.org/2000/svg">
<g filter="url(#filter0_di_1495_7007)">
<ellipse cx="45.5" cy="41.7342" rx="41.5" ry="41.7342" fill="#FFCC36"/>
</g>
<path d="M62.2396 41.6415L53.4486 22.2737C53.0037 21.292 52.0354 20.7234 51.0266 20.7319C51.0241 20.7378 51.0241 20.7433 51.0226 20.7492C50.6349 24.919 48.4128 35.3985 45.7206 35.3985C43.0307 35.3985 40.8085 24.9197 40.4192 20.7492C40.4192 20.7442 40.4192 20.7378 40.4192 20.7327C39.4103 20.7236 38.4421 21.292 37.9949 22.2737L34.0674 30.9265C33.8982 30.8096 33.7024 30.7249 33.4823 30.7249H25.6595C25.0767 30.7249 24.6051 31.1991 24.6051 31.7852V32.0514C23.1631 32.0691 22 33.2432 22 34.6967C22 36.1497 23.1632 37.3241 24.6051 37.3415V44.9473C24.6051 45.5338 25.0767 46.008 25.6595 46.008H33.4823C34.0636 46.008 34.5366 45.5338 34.5366 44.9473V37.3478H35.2533C36.2873 37.3478 37.2249 36.7419 37.6533 35.7975L38.2486 34.4843L38.2399 67.4253C38.2399 69.1829 39.657 70.6066 41.4037 70.6066C43.1528 70.6066 44.5674 69.1829 44.5674 67.4253V48.4657H46.8742V67.4253C46.8742 69.1829 48.2912 70.6066 50.038 70.6066C51.7863 70.6066 53.2017 69.1829 53.2017 67.4253L53.1955 34.4843L57.4448 43.8434C57.8851 44.8188 58.843 45.3946 59.8441 45.3946C60.2084 45.3946 60.5811 45.317 60.9376 45.1543C62.2599 44.5468 62.8451 42.9731 62.2396 41.6415ZM32.4278 43.887H26.7144V32.8459H32.4278V43.887Z" fill="#313638"/>
<path d="M48.8206 25.699C50.598 23.9104 50.598 21.0105 48.8206 19.222C48.5715 18.9723 48.172 18.9723 47.9222 19.222L45.7203 21.4351L43.5207 19.222C43.274 18.9723 42.8698 18.9723 42.6231 19.222C40.8434 21.0105 40.8434 23.9104 42.6231 25.699C42.8699 25.9483 43.274 25.9483 43.5207 25.699L45.7203 23.4854L47.9222 25.699C48.1721 25.9483 48.5715 25.9483 48.8206 25.699Z" fill="#313638"/>
<path d="M45.7204 19.4373C47.6363 19.4373 49.3228 18.5436 50.4539 17.1684C51.3351 16.0963 51.8873 14.7394 51.8873 13.2388C51.8873 9.81405 49.1277 7.03951 45.7204 7.03951C42.3185 7.03951 39.5581 9.81405 39.5581 13.2388C39.5581 14.7386 40.1079 16.0963 40.9916 17.1684C42.1203 18.5424 43.8091 19.4373 45.7204 19.4373Z" fill="#313638"/>
<path d="M45.7204 25.8864C45.14 25.8864 44.666 26.3606 44.666 26.9466C44.666 27.5326 45.14 28.0072 45.7204 28.0072C46.3055 28.0072 46.7754 27.5326 46.7754 26.9466C46.7754 26.3606 46.3055 25.8864 45.7204 25.8864Z" fill="#313638"/>
<path d="M45.7204 30.1284C45.14 30.1284 44.666 30.6025 44.666 31.189C44.666 31.7751 45.14 32.2492 45.7204 32.2492C46.3055 32.2492 46.7754 31.7751 46.7754 31.189C46.7754 30.6026 46.3055 30.1284 45.7204 30.1284Z" fill="#313638"/>
<defs>
<filter id="filter0_di_1495_7007" x="0" y="-1" width="91" height="92.4685" filterUnits="userSpaceOnUse" color-interpolation-filters="sRGB">
<feFlood flood-opacity="0" result="BackgroundImageFix"/>
<feColorMatrix in="SourceAlpha" type="matrix" values="0 0 0 0 0 0 0 0 0 0 0 0 0 0 0 0 0 0 127 0" result="hardAlpha"/>
<feOffset dy="4"/>
<feGaussianBlur stdDeviation="2"/>
<feComposite in2="hardAlpha" operator="out"/>
<feColorMatrix type="matrix" values="0 0 0 0 0 0 0 0 0 0 0 0 0 0 0 0 0 0 0.29 0"/>
<feBlend mode="normal" in2="BackgroundImageFix" result="effect1_dropShadow_1495_7007"/>
<feBlend mode="normal" in="SourceGraphic" in2="effect1_dropShadow_1495_7007" result="shape"/>
<feColorMatrix in="SourceAlpha" type="matrix" values="0 0 0 0 0 0 0 0 0 0 0 0 0 0 0 0 0 0 127 0" result="hardAlpha"/>
<feOffset dy="-1"/>
<feGaussianBlur stdDeviation="1.5"/>
<feComposite in2="hardAlpha" operator="arithmetic" k2="-1" k3="1"/>
<feColorMatrix type="matrix" values="0 0 0 0 0 0 0 0 0 0 0 0 0 0 0 0 0 0 0.25 0"/>
<feBlend mode="normal" in2="shape" result="effect2_innerShadow_1495_7007"/>
</filter>
</defs>
</svg>
