<svg width="10" height="10" viewBox="0 0 10 10" fill="none" xmlns="http://www.w3.org/2000/svg">
<g id="Heart" clip-path="url(#clip0_1116_2238)">
<path id="Vector" d="M9.28571 3.3259C9.28571 3.02456 9.24572 2.75857 9.16574 2.52791C9.08575 2.29726 8.98345 2.11403 8.85882 1.97825C8.73419 1.84246 8.58259 1.73178 8.40402 1.64621C8.22545 1.56065 8.0506 1.50298 7.87946 1.47322C7.70833 1.44346 7.52604 1.42858 7.33259 1.42858C7.13914 1.42858 6.9308 1.47601 6.70759 1.57088C6.48438 1.66575 6.27883 1.78479 6.09096 1.92802C5.90309 2.07125 5.74219 2.20518 5.60826 2.32981C5.47433 2.45444 5.36272 2.56883 5.27344 2.673C5.20647 2.75484 5.11533 2.79577 5 2.79577C4.88467 2.79577 4.79353 2.75484 4.72656 2.673C4.63728 2.56883 4.52567 2.45444 4.39174 2.32981C4.25781 2.20518 4.09691 2.07125 3.90904 1.92802C3.72117 1.78479 3.51562 1.66575 3.29241 1.57088C3.0692 1.47601 2.86086 1.42858 2.66741 1.42858C2.47396 1.42858 2.29167 1.44346 2.12054 1.47322C1.9494 1.50298 1.77455 1.56065 1.59598 1.64621C1.41741 1.73178 1.26581 1.84246 1.14118 1.97825C1.01656 2.11403 0.914249 2.29726 0.834263 2.52791C0.754278 2.75857 0.714286 3.02456 0.714286 3.3259C0.714286 3.9509 1.06213 4.61124 1.75781 5.30693L5 8.43193L8.23661 5.31251C8.93601 4.6131 9.28571 3.9509 9.28571 3.3259ZM10 3.3259C10 4.14807 9.57403 4.98513 8.7221 5.83706L5.24554 9.18528C5.17857 9.25224 5.09673 9.28572 5 9.28572C4.90327 9.28572 4.82143 9.25224 4.75446 9.18528L1.27232 5.8259C1.23512 5.79614 1.18397 5.74778 1.11886 5.68081C1.05376 5.61385 0.950521 5.49201 0.809152 5.3153C0.667783 5.13859 0.541295 4.95723 0.429688 4.77121C0.31808 4.5852 0.218564 4.36013 0.131138 4.09599C0.0437128 3.83185 0 3.57516 0 3.3259C0 2.50745 0.236235 1.86757 0.708705 1.40626C1.18118 0.944949 1.83408 0.714294 2.66741 0.714294C2.89807 0.714294 3.13337 0.754287 3.37333 0.834272C3.61328 0.914257 3.8365 1.02214 4.04297 1.15793C4.24944 1.29372 4.42708 1.42114 4.57589 1.54019C4.7247 1.65923 4.86607 1.78572 5 1.91965C5.13393 1.78572 5.2753 1.65923 5.42411 1.54019C5.57292 1.42114 5.75056 1.29372 5.95703 1.15793C6.1635 1.02214 6.38672 0.914257 6.62667 0.834272C6.86663 0.754287 7.10193 0.714294 7.33259 0.714294C8.16592 0.714294 8.81882 0.944949 9.2913 1.40626C9.76377 1.86757 10 2.50745 10 3.3259Z" fill="#FFCC36"/>
</g>
<defs>
<clipPath id="clip0_1116_2238">
<rect width="10" height="10" fill="white"/>
</clipPath>
</defs>
</svg>
