<svg width="32" height="32" viewBox="0 0 32 29" xmlns="http://www.w3.org/2000/svg">
    <path id="Vector"
        d="M0 9.66328V9.28649C0 4.74549 3.1575 0.872318 7.4625 0.126529C10.2563 -0.36655 13.2125 0.598819 15.25 2.7199L16 3.49817L16.6938 2.7199C18.7875 0.598819 21.6875 -0.36655 24.5375 0.126529C28.8438 0.872318 32 4.74549 32 9.28649V9.66328C32 12.3593 30.925 14.9384 29.025 16.7769L17.7313 27.7363C17.2625 28.1911 16.6437 28.4444 16 28.4444C15.3562 28.4444 14.7375 28.1911 14.2688 27.7363L2.97438 16.7769C1.07687 14.9384 0 12.3593 0 9.66328Z" />
</svg>