<svg width="32" height="32" viewBox="0 0 36 32" fill="none" xmlns="http://www.w3.org/2000/svg">
<path id="Vector" d="M35.9906 15.9688C35.9906 17.0938 35.053 17.975 33.9904 17.975H31.9902L32.034 27.9875C32.034 28.1562 32.0215 28.325 32.0027 28.4937V29.5C32.0027 30.8813 30.8839 32 29.5025 32H28.5024C28.4337 32 28.3649 32 28.2962 31.9937C28.2087 32 28.1211 32 28.0336 32H26.0022H24.5021C23.1207 32 22.0019 30.8813 22.0019 29.5V28V24C22.0019 22.8937 21.108 22 20.0017 22H16.0014C14.895 22 14.0012 22.8937 14.0012 24V28V29.5C14.0012 30.8813 12.8823 32 11.501 32H10.0009H8.00693C7.91317 32 7.81942 31.9937 7.72566 31.9875C7.65065 31.9937 7.57564 32 7.50064 32H6.50055C5.11919 32 4.00034 30.8813 4.00034 29.5V22.5C4.00034 22.4438 4.00034 22.3813 4.00659 22.325V17.975H2.00017C0.875075 17.975 0 17.1 0 15.9688C0 15.4062 0.187516 14.9062 0.625053 14.4688L16.6514 0.5C17.089 0.0625 17.589 0 18.0265 0C18.4641 0 18.9641 0.125 19.3391 0.4375L35.303 14.4688C35.803 14.9062 36.0531 15.4062 35.9906 15.9688Z" fill="#FDFDFD"/>
</svg>
