<svg width="20" height="20" viewBox="0 0 20 21" fill="none" xmlns="http://www.w3.org/2000/svg">
<g id="Search">
<g id="Layer 2">
<path id="search" d="M17.2584 16.2831L14.425 13.4581C15.3392 12.2934 15.8352 10.8553 15.8334 9.37472C15.8334 8.05618 15.4424 6.76725 14.7098 5.67092C13.9773 4.57459 12.9361 3.72011 11.7179 3.21553C10.4997 2.71094 9.15929 2.57892 7.86608 2.83615C6.57288 3.09339 5.38499 3.72833 4.45264 4.66068C3.52029 5.59303 2.88535 6.78091 2.62812 8.07412C2.37088 9.36733 2.5029 10.7078 3.00749 11.9259C3.51207 13.1441 4.36656 14.1853 5.46288 14.9179C6.55921 15.6504 7.84814 16.0414 9.16669 16.0414C10.6472 16.0432 12.0854 15.5472 13.25 14.6331L16.075 17.4664C16.1525 17.5445 16.2447 17.6065 16.3462 17.6488C16.4478 17.6911 16.5567 17.7129 16.6667 17.7129C16.7767 17.7129 16.8856 17.6911 16.9872 17.6488C17.0887 17.6065 17.1809 17.5445 17.2584 17.4664C17.3365 17.3889 17.3985 17.2968 17.4408 17.1952C17.4831 17.0937 17.5049 16.9847 17.5049 16.8747C17.5049 16.7647 17.4831 16.6558 17.4408 16.5542C17.3985 16.4527 17.3365 16.3605 17.2584 16.2831ZM4.16668 9.37472C4.16668 8.38582 4.45993 7.41912 5.00934 6.59687C5.55874 5.77463 6.33964 5.13376 7.25327 4.75533C8.1669 4.37689 9.17223 4.27787 10.1421 4.4708C11.112 4.66372 12.003 5.13993 12.7022 5.83919C13.4015 6.53845 13.8777 7.42937 14.0706 8.39927C14.2635 9.36918 14.1645 10.3745 13.7861 11.2881C13.4076 12.2018 12.7668 12.9827 11.9445 13.5321C11.1223 14.0815 10.1556 14.3747 9.16669 14.3747C7.8406 14.3747 6.56883 13.8479 5.63115 12.9103C4.69347 11.9726 4.16668 10.7008 4.16668 9.37472Z" fill="#9D9C9D"/>
</g>
</g>
</svg>
