<svg width="13" height="11" viewBox="0 0 13 11" fill="none" xmlns="http://www.w3.org/2000/svg">
<path id="Vector" d="M0.546299 0C0.243558 0 0 0.229883 0 0.515625C0 0.801367 0.243558 1.03125 0.546299 1.03125H1.58199C1.66849 1.03125 1.74361 1.08926 1.76182 1.1709L2.93636 6.99316C3.08431 7.72363 3.76036 8.25 4.54567 8.25H11.1081C11.4108 8.25 11.6544 8.02012 11.6544 7.73438C11.6544 7.44863 11.4108 7.21875 11.1081 7.21875H4.54567C4.2839 7.21875 4.05855 7.04258 4.00847 6.7998L3.88555 6.1875H10.4525C11.1946 6.1875 11.8433 5.71914 12.0345 5.04238L12.9678 1.77031C13.1248 1.22461 12.6878 0.6875 12.0891 0.6875H8.19449V2.88106L8.71803 2.38691C8.93199 2.18496 9.27798 2.18496 9.48967 2.38691C9.70137 2.58887 9.70364 2.91543 9.48967 3.11523L8.03288 4.49023C7.81891 4.69219 7.47292 4.69219 7.26123 4.49023L5.80443 3.11523C5.59046 2.91328 5.59046 2.58672 5.80443 2.38691C6.0184 2.18711 6.36439 2.18496 6.57608 2.38691L7.09962 2.88106V0.6875H2.73377C2.52663 0.275 2.08504 0 1.58199 0H0.546299ZM4.0062 11C4.29597 11 4.57388 10.8914 4.77878 10.698C4.98368 10.5046 5.09879 10.2423 5.09879 9.96875C5.09879 9.69525 4.98368 9.43294 4.77878 9.23955C4.57388 9.04615 4.29597 8.9375 4.0062 8.9375C3.71642 8.9375 3.43851 9.04615 3.23361 9.23955C3.02871 9.43294 2.9136 9.69525 2.9136 9.96875C2.9136 10.2423 3.02871 10.5046 3.23361 10.698C3.43851 10.8914 3.71642 11 4.0062 11ZM11.6544 9.96875C11.6544 9.69525 11.5393 9.43294 11.3344 9.23955C11.1295 9.04615 10.8516 8.9375 10.5618 8.9375C10.272 8.9375 9.99411 9.04615 9.7892 9.23955C9.5843 9.43294 9.46919 9.69525 9.46919 9.96875C9.46919 10.2423 9.5843 10.5046 9.7892 10.698C9.99411 10.8914 10.272 11 10.5618 11C10.8516 11 11.1295 10.8914 11.3344 10.698C11.5393 10.5046 11.6544 10.2423 11.6544 9.96875Z" fill="#FFCC36"/>
</svg>
