<svg width="41" height="64" viewBox="0 0 41 64" fill="none" xmlns="http://www.w3.org/2000/svg">
<path d="M40.2396 34.4078L31.4486 15.1487C31.0037 14.1725 30.0354 13.6071 29.0266 13.6155C29.0241 13.6214 29.0241 13.6269 29.0226 13.6327C28.6349 17.7791 26.4128 28.1998 23.7206 28.1998C21.0307 28.1998 18.8085 17.7799 18.4192 13.6327C18.4192 13.6278 18.4192 13.6214 18.4192 13.6163C17.4103 13.6073 16.4421 14.1725 15.9949 15.1487L12.0674 23.7529C11.8982 23.6367 11.7024 23.5525 11.4823 23.5525H3.65951C3.0767 23.5525 2.60514 24.024 2.60514 24.6068V24.8715C1.16308 24.8891 0 26.0567 0 27.5019C0 28.9468 1.16321 30.1146 2.60514 30.1319V37.695C2.60514 38.2782 3.0767 38.7498 3.65951 38.7498H11.4823C12.0636 38.7498 12.5366 38.2782 12.5366 37.695V30.1382H13.2533C14.2873 30.1382 15.2249 29.5357 15.6533 28.5966L16.2486 27.2907L16.2399 60.0469C16.2399 61.7946 17.657 63.2103 19.4037 63.2103C21.1528 63.2103 22.5674 61.7946 22.5674 60.0469V41.1937H24.8742V60.0469C24.8742 61.7946 26.2912 63.2103 28.038 63.2103C29.7863 63.2103 31.2017 61.7946 31.2017 60.0469L31.1955 27.2907L35.4448 36.5973C35.8851 37.5673 36.843 38.1398 37.8441 38.1398C38.2084 38.1398 38.5811 38.0627 38.9376 37.9008C40.2599 37.2967 40.8451 35.7319 40.2396 34.4078ZM10.4278 36.6406H4.71439V25.6616H10.4278V36.6406Z" fill="#313638"/>
<path d="M26.8205 18.5547C28.5978 16.7762 28.5978 13.8926 26.8205 12.1141C26.5714 11.8658 26.1719 11.8658 25.9221 12.1141L23.7202 14.3148L21.5206 12.1141C21.2738 11.8658 20.8697 11.8658 20.623 12.1141C18.8433 13.8926 18.8433 16.7762 20.623 18.5547C20.8698 18.8026 21.2738 18.8026 21.5206 18.5547L23.7202 16.3536L25.9221 18.5547C26.172 18.8026 26.5714 18.8026 26.8205 18.5547Z" fill="#313638"/>
<path d="M23.7204 12.3282C25.6363 12.3282 27.3228 11.4395 28.4539 10.072C29.335 9.00592 29.8873 7.65664 29.8873 6.16449C29.8873 2.75897 27.1277 0 23.7204 0C20.3184 0 17.558 2.75897 17.558 6.16449C17.558 7.65587 18.1079 9.00592 18.9916 10.072C20.1202 11.4384 21.809 12.3282 23.7204 12.3282Z" fill="#313638"/>
<path d="M23.7203 18.7411C23.1399 18.7411 22.666 19.2127 22.666 19.7954C22.666 20.3781 23.1399 20.85 23.7203 20.85C24.3054 20.85 24.7753 20.3781 24.7753 19.7954C24.7753 19.2127 24.3054 18.7411 23.7203 18.7411Z" fill="#313638"/>
<path d="M23.7203 22.9594C23.1399 22.9594 22.666 23.4308 22.666 24.014C22.666 24.5968 23.1399 25.0682 23.7203 25.0682C24.3054 25.0682 24.7753 24.5968 24.7753 24.014C24.7753 23.4309 24.3054 22.9594 23.7203 22.9594Z" fill="#313638"/>
</svg>
