<svg width="90" height="90" viewBox="0 0 90 90" fill="none" xmlns="http://www.w3.org/2000/svg">
<path d="M30.9375 16.8749H25.3125C25.5292 15.3191 26.2998 13.8936 27.483 12.8603C28.6661 11.827 30.1823 11.2552 31.7531 11.2499H32.4C33.3229 8.68166 35.0443 6.47664 37.3118 4.95818C39.5794 3.43972 42.2738 2.68771 45 2.81242C47.7121 2.70605 50.3875 3.46666 52.638 4.98386C54.8885 6.50106 56.597 8.69592 57.5156 11.2499H58.1625C59.7478 11.2348 61.2845 11.7973 62.4853 12.8325C63.6861 13.8677 64.4689 15.3047 64.6875 16.8749H59.0625V25.1155C58.8998 25.2377 58.7033 25.3065 58.5 25.3124H31.5C31.3129 25.3301 31.1246 25.3301 30.9375 25.3124V16.8749Z" fill="#313638"/>
<path d="M66.8813 16.8751H64.6875C64.6875 17.1845 64.6875 17.4657 64.6875 17.7751V25.3126C64.6073 26.877 63.9119 28.3463 62.7528 29.4C61.5937 30.4538 60.065 31.0064 58.5 30.9376H31.5C29.935 31.0064 28.4063 30.4538 27.2472 29.4C26.0881 28.3463 25.3927 26.877 25.3125 25.3126V17.7751C25.3125 17.4657 25.3125 17.1845 25.3125 16.8751H23.1188C20.8006 16.7991 18.5466 17.644 16.8495 19.2251C15.1525 20.8061 14.1505 22.9948 14.0625 25.3126V78.7501C14.1505 81.0678 15.1525 83.2565 16.8495 84.8376C18.5466 86.4187 20.8006 87.2636 23.1188 87.1876H66.8813C69.1994 87.2636 71.4534 86.4187 73.1505 84.8376C74.8475 83.2565 75.8495 81.0678 75.9375 78.7501V25.3126C75.8495 22.9948 74.8475 20.8061 73.1505 19.2251C71.4534 17.644 69.1994 16.7991 66.8813 16.8751ZM33.75 68.0907V70.0313C33.7504 70.1013 33.7246 70.1689 33.6778 70.2209C33.631 70.2729 33.5665 70.3056 33.4969 70.3126H30.9375C30.6844 70.3126 30.6844 70.0876 30.6844 68.0626C29.0547 67.8452 27.5765 66.9937 26.5708 65.6931C25.5651 64.3925 25.1129 62.7477 25.3125 61.1157C25.3122 61.0383 25.3409 60.9636 25.393 60.9063C25.445 60.849 25.5167 60.8134 25.5938 60.8063L29.8687 60.5532C30.0656 60.5532 30.1781 60.5532 30.2344 60.947C30.4594 62.1001 31.0219 62.8313 31.7812 62.8313C31.882 62.8353 31.9825 62.8184 32.0765 62.7816C32.1704 62.7448 32.2557 62.689 32.327 62.6177C32.3983 62.5464 32.4541 62.4611 32.4909 62.3672C32.5276 62.2733 32.5446 62.1727 32.5406 62.072C32.5406 61.2001 31.725 60.4688 29.0531 58.5282C28.0909 57.895 27.2982 57.0361 26.7443 56.0262C26.1903 55.0163 25.8919 53.8862 25.875 52.7345C25.8686 51.341 26.3481 49.9889 27.231 48.9109C28.114 47.8329 29.3451 47.0964 30.7125 46.8282V45.0001C30.7125 44.8313 30.7125 44.6907 30.9375 44.6907H33.4125C33.6656 44.6907 33.6656 44.9157 33.6656 46.8845C35.0972 47.1569 36.3858 47.9281 37.3024 49.061C38.219 50.1939 38.7042 51.6151 38.6719 53.072C38.6719 53.1689 38.6334 53.2619 38.5648 53.3305C38.4962 53.3991 38.4032 53.4376 38.3062 53.4376L33.75 53.6626C33.525 53.6626 32.9062 52.3688 32.6531 52.3688C32.589 52.3683 32.5255 52.3815 32.4669 52.4076C32.4082 52.4336 32.3559 52.4719 32.3133 52.5199C32.2706 52.5678 32.2388 52.6243 32.2198 52.6856C32.2008 52.7468 32.1951 52.8114 32.2031 52.8751C32.2031 53.6907 33.3281 54.5345 35.5781 56.2501C36.5291 56.8569 37.318 57.6861 37.8766 58.6662C38.4353 59.6463 38.7468 60.7476 38.7844 61.8751C38.8712 63.3523 38.4031 64.8086 37.4717 65.9585C36.5404 67.1084 35.213 67.8688 33.75 68.0907ZM61.875 67.5001H47.8125C47.0666 67.5001 46.3512 67.2038 45.8238 66.6763C45.2963 66.1489 45 65.4335 45 64.6876C45 63.9417 45.2963 63.2263 45.8238 62.6988C46.3512 62.1714 47.0666 61.8751 47.8125 61.8751H61.875C62.6209 61.8751 63.3363 62.1714 63.8637 62.6988C64.3912 63.2263 64.6875 63.9417 64.6875 64.6876C64.6875 65.4335 64.3912 66.1489 63.8637 66.6763C63.3363 67.2038 62.6209 67.5001 61.875 67.5001ZM61.875 56.2501H47.8125C47.0666 56.2501 46.3512 55.9538 45.8238 55.4263C45.2963 54.8989 45 54.1835 45 53.4376C45 52.6917 45.2963 51.9763 45.8238 51.4488C46.3512 50.9214 47.0666 50.6251 47.8125 50.6251H61.875C62.6209 50.6251 63.3363 50.9214 63.8637 51.4488C64.3912 51.9763 64.6875 52.6917 64.6875 53.4376C64.6875 54.1835 64.3912 54.8989 63.8637 55.4263C63.3363 55.9538 62.6209 56.2501 61.875 56.2501ZM61.875 45.0001H39.375C38.6291 45.0001 37.9137 44.7038 37.3863 44.1763C36.8588 43.6489 36.5625 42.9335 36.5625 42.1876C36.5625 41.4417 36.8588 40.7263 37.3863 40.1988C37.9137 39.6714 38.6291 39.3751 39.375 39.3751H61.875C62.6209 39.3751 63.3363 39.6714 63.8637 40.1988C64.3912 40.7263 64.6875 41.4417 64.6875 42.1876C64.6875 42.9335 64.3912 43.6489 63.8637 44.1763C63.3363 44.7038 62.6209 45.0001 61.875 45.0001Z" fill="#313638"/>
</svg>
