<svg width="42" height="42" viewBox="0 0 42 42" fill="none" xmlns="http://www.w3.org/2000/svg">
<circle cx="21" cy="21" r="20" stroke="#F5F5F5" stroke-width="2"/>
<path d="M9.65743 30.3334H33.5093C34.3292 30.3334 35 29.6334 35 28.7779C35 27.9223 34.3292 27.2223 33.5093 27.2223H9.65743C8.83752 27.2223 8.16669 27.9223 8.16669 28.7779C8.16669 29.6334 8.83752 30.3334 9.65743 30.3334ZM9.65743 22.5556H33.5093C34.3292 22.5556 35 21.8556 35 21.0001C35 20.1445 34.3292 19.4445 33.5093 19.4445H9.65743C8.83752 19.4445 8.16669 20.1445 8.16669 21.0001C8.16669 21.8556 8.83752 22.5556 9.65743 22.5556ZM8.16669 13.2223C8.16669 14.0779 8.83752 14.7779 9.65743 14.7779H33.5093C34.3292 14.7779 35 14.0779 35 13.2223C35 12.3667 34.3292 11.6667 33.5093 11.6667H9.65743C8.83752 11.6667 8.16669 12.3667 8.16669 13.2223Z" fill="#F5F5F5"/>
</svg>
