<svg width="90" height="90" viewBox="0 0 90 90" fill="none" xmlns="http://www.w3.org/2000/svg">
<path id="Embers" d="M41.7788 0.000189642C39.9689 0.000189642 38.5012 1.47148 38.5012 3.28508C38.5012 5.09867 39.9693 6.57015 41.779 6.57015C43.5884 6.57015 45.0503 5.09867 45.0503 3.28508C45.0503 1.4711 43.5882 0.000189642 41.7788 0.000189642ZM3.9638 2.21775C1.99629 2.21775 0.402287 3.81542 0.402287 5.78745C0.402287 7.75891 1.99629 9.35695 3.96399 9.35695C5.93151 9.35695 7.52532 7.75929 7.52532 5.78726C7.52532 3.81542 5.93113 2.21775 3.9638 2.21775ZM32.1477 5.14098C29.433 5.14098 27.2313 7.34204 27.2313 10.0626C27.2313 12.7828 29.433 14.9903 32.1477 14.9903C34.8619 14.9903 37.0638 12.7828 37.0638 10.0626C37.0638 7.34204 34.8625 5.14098 32.1477 5.14098ZM54.1552 5.6273C59.1625 18.3638 42.9423 27.8807 43.3644 12.3098C35.7513 19.3158 40.938 28.2917 44.2694 35.4349C46.7948 40.8512 46.6058 45.6514 42.3526 47.4781C39.317 48.7817 35.9406 45.2784 34.8511 41.6848C34.6137 40.9015 34.5363 39.9321 34.5728 38.7674C36.4001 38.6147 37.8328 37.0802 37.8328 35.2097C37.8328 33.2376 36.2388 31.64 34.2712 31.64C32.3039 31.64 30.7099 33.2376 30.7099 35.2097C30.7099 36.5406 31.4369 37.7029 32.5141 38.3168C28.9512 42.2384 25.3846 40.308 27.7461 28.4917C16.4616 41.3622 20.5409 66.2246 36.2708 73.8171C33.8108 68.9851 32.4569 62.9915 33.5731 57.8785C40.4545 72.8333 56.4987 58.146 57.432 44.7681C59.9858 53.232 59.6348 65.5928 55.3912 74.4577C72.5059 67.7565 76.3416 41.9219 67.3178 29.0192C66.207 44.5996 53.9729 38.5126 58.9824 17.9369C60.212 12.8855 56.7014 7.08265 54.1552 5.6273ZM6.78568 12.6595C4.97586 12.6595 3.50813 14.1312 3.50813 15.9447C3.50813 17.7582 4.97605 19.2296 6.78568 19.2296C8.5955 19.2296 10.0632 17.7582 10.0632 15.9447C10.0632 14.1308 8.59531 12.6595 6.78568 12.6595ZM19.3986 13.638C17.2167 13.638 15.4525 15.4125 15.4525 17.5991C15.4525 18.1456 15.5605 18.667 15.7604 19.1406C13.6151 19.6624 12.0215 21.6035 12.0215 23.9141C12.0215 26.6244 14.2156 28.8238 16.9199 28.8238C19.6246 28.8238 21.8185 26.6242 21.8185 23.9139C21.8194 22.9524 21.5376 22.0119 21.0083 21.21C22.3872 20.5922 23.3508 19.2107 23.3508 17.5991C23.3508 15.4121 21.5804 13.638 19.3986 13.638ZM68.2939 17.8838C66.4847 17.8838 65.0226 19.3551 65.0226 21.1687C65.0226 22.9822 66.4847 24.4537 68.2939 24.4537C70.1037 24.4537 71.5717 22.9822 71.5717 21.1687C71.5717 19.3547 70.1036 17.8838 68.2939 17.8838ZM15.3641 32.7194C13.5543 32.7194 12.0866 34.1909 12.0866 36.0045C12.0866 37.8179 13.5545 39.2894 15.3641 39.2894C17.1736 39.2894 18.6415 37.8179 18.6415 36.0043C18.6415 34.1907 17.1736 32.7194 15.3641 32.7194ZM15.6303 64.5968C6.13559 67.1827 0 71.0097 0 75.2583C0 83.0411 20.1704 89.3706 45.0031 89.3706C69.8355 89.3706 90 83.0411 90 75.2583C90 71.025 83.9184 67.1823 74.4821 64.5968C77.7443 66.2817 79.6882 68.2481 79.6882 70.3723C79.6882 76.4688 64.1117 81.4842 45.0029 81.4842C25.8944 81.4842 10.418 76.4683 10.418 70.3721C10.418 68.2367 12.335 66.2872 15.6303 64.5968Z" fill="#313638"/>
</svg>
