<svg width="44" height="44" viewBox="0 0 44 44" fill="none" xmlns="http://www.w3.org/2000/svg">
<mask id="mask0_96_158" style="mask-type:alpha" maskUnits="userSpaceOnUse" x="0" y="0" width="44" height="44">
<circle cx="21.604" cy="21.604" r="21.604" fill="#D9D9D9"/>
</mask>
<g mask="url(#mask0_96_158)">
</g>
<g clip-path="url(#clip0_96_158)">
<path d="M21.9553 43.208C34.0809 43.208 43.9106 33.5356 43.9106 21.604C43.9106 9.67244 34.0809 0 21.9553 0C9.82971 0 0 9.67244 0 21.604C0 33.5356 9.82971 43.208 21.9553 43.208Z" fill="#FFCC36"/>
<path d="M43.9106 21.604C43.9106 21.0577 43.8896 20.5162 43.8491 19.9801L29.5869 5.94604L16.2726 19.4713L13.5463 20.8516L17.5828 24.8236L17.0214 24.9056L21.1534 28.9715L32.2776 40.6746C39.1993 37.0395 43.9106 29.8637 43.9106 21.604Z" fill="#EAAB4B"/>
<path d="M24.1071 26.9661V24.6182H19.8039V26.9661C19.8039 27.1534 19.6495 27.3053 19.4591 27.3053H16.4938V35.4078H27.4175V27.3053H24.4521C24.2614 27.3053 24.1071 27.1534 24.1071 26.9661Z" fill="#FED8B2"/>
<path d="M27.8861 27.3053H24.3947V26.8049H19.5157V27.3053H16.0243C13.2668 27.3053 11.0314 29.5049 11.0314 32.2183V40.3483C14.2487 42.1676 17.9784 43.208 21.9552 43.208C25.9321 43.208 29.6619 42.1676 32.879 40.3483V32.2183C32.879 29.505 30.6436 27.3053 27.8861 27.3053Z" fill="#E6F3FF"/>
<path d="M27.8861 27.3053H24.3947V26.8049H21.8074V43.2055C21.8568 43.2057 21.9057 43.2079 21.9551 43.2079C25.9319 43.2079 29.6617 42.1675 32.8788 40.3482V32.2183C32.879 29.505 30.6436 27.3053 27.8861 27.3053Z" fill="#CFDBE6"/>
<path d="M21.0406 26.805L14.9566 29.2323C14.7635 29.3092 14.6371 29.4939 14.6371 29.6989V41.9762C14.9783 42.0949 15.3233 42.2061 15.672 42.3083V30.403C15.672 30.1982 15.7981 30.0139 15.9908 29.9366L23.8104 26.8049H21.0406V26.805Z" fill="#B8C9D9"/>
<path d="M14.8024 21.3905C15.7521 21.3905 16.5221 20.6329 16.5221 19.6983C16.5221 18.7637 15.7521 18.0061 14.8024 18.0061C13.8526 18.0061 13.0826 18.7637 13.0826 19.6983C13.0826 20.6329 13.8526 21.3905 14.8024 21.3905Z" fill="#FED8B2"/>
<path d="M28.7414 21.3905C29.6912 21.3905 30.4612 20.6329 30.4612 19.6983C30.4612 18.7637 29.6912 18.0061 28.7414 18.0061C27.7917 18.0061 27.0217 18.7637 27.0217 19.6983C27.0217 20.6329 27.7917 21.3905 28.7414 21.3905Z" fill="#EABE96"/>
<path d="M21.9657 26.7457H21.5783C17.9937 26.7457 15.0879 23.8864 15.0879 20.3592V14.5281C15.0879 11.0009 17.9937 8.1416 21.5783 8.1416H21.9657C25.5503 8.1416 28.4561 11.0009 28.4561 14.5281V20.3592C28.4561 23.8864 25.5503 26.7457 21.9657 26.7457Z" fill="#F4E3C3"/>
<path d="M21.9657 8.1416H21.8075V26.7456H21.9657C25.5503 26.7456 28.4561 23.8863 28.4561 20.3591V14.528C28.4561 11.0009 25.5503 8.1416 21.9657 8.1416Z" fill="#FED8B2"/>
<path d="M14.515 14.2781V14.8143V19.6986H15.5495V16.8342C15.5492 16.8342 15.5491 16.8342 15.5489 16.8342C17.5538 16.6337 19.5369 16.3131 21.4133 15.7616V7.3479C17.5902 7.42588 14.515 10.4976 14.515 14.2781Z" fill="#FFD15D"/>
<path d="M27.7522 10.2999C26.4776 8.51322 24.3693 7.34424 21.9824 7.34424H21.5616C21.512 7.34424 21.4628 7.34685 21.4133 7.34787V15.7615C22.475 15.4495 23.503 15.0644 24.4806 14.5834C25.4541 15.6836 26.5785 16.666 27.8196 17.4629V19.6985H29.0291V16.0471V14.278C29.029 12.7975 28.5559 11.4263 27.7522 10.2999Z" fill="#F9B54C"/>
<path d="M18.6213 19.6053C18.9905 19.6053 19.2898 19.3108 19.2898 18.9475C19.2898 18.5843 18.9905 18.2898 18.6213 18.2898C18.2522 18.2898 17.9529 18.5843 17.9529 18.9475C17.9529 19.3108 18.2522 19.6053 18.6213 19.6053Z" fill="#59595B"/>
<path d="M24.9226 19.6053C25.2918 19.6053 25.591 19.3108 25.591 18.9475C25.591 18.5843 25.2918 18.2898 24.9226 18.2898C24.5534 18.2898 24.2542 18.5843 24.2542 18.9475C24.2542 19.3108 24.5534 19.6053 24.9226 19.6053Z" fill="#272525"/>
<path d="M21.7719 24.3374C20.5675 24.3374 19.588 23.3734 19.588 22.1884C19.588 21.9875 19.7534 21.8247 19.9577 21.8247C20.1619 21.8247 20.3273 21.9875 20.3273 22.1884C20.3273 22.9723 20.9755 23.6099 21.7719 23.6099C22.5684 23.6099 23.2165 22.9721 23.2165 22.1884C23.2165 21.9875 23.3819 21.8247 23.5861 21.8247C23.7903 21.8247 23.9557 21.9875 23.9557 22.1884C23.9559 23.3734 22.9762 24.3374 21.7719 24.3374Z" fill="#FD8469"/>
<path d="M23.9559 22.1887C23.9559 21.9877 23.7905 21.825 23.5863 21.825C23.3821 21.825 23.2167 21.9877 23.2167 22.1887C23.2167 22.9608 22.5876 23.5896 21.8075 23.6085V24.3359C22.9954 24.3169 23.9559 23.3618 23.9559 22.1887Z" fill="#FC6F58"/>
<path d="M24.3948 26.7686H19.5159V27.496H24.3948V26.7686Z" fill="#A82116"/>
<path d="M18.4562 28.2699C17.5788 29.1333 17.1726 30.2841 17.236 31.4141C18.3845 31.4765 19.554 31.0767 20.4313 30.2135C21.3087 29.3501 21.7149 28.1993 21.6515 27.0693C20.503 27.0069 19.3335 27.4067 18.4562 28.2699Z" fill="#C1321F"/>
<path d="M25.4545 28.2697C26.3319 29.133 26.7381 30.2838 26.6747 31.4138C25.5262 31.4763 24.3567 31.0764 23.4794 30.2132C22.602 29.3499 22.1958 28.1991 22.2592 27.0691C23.4078 27.0066 24.5772 27.4065 25.4545 28.2697Z" fill="#A82116"/>
<path d="M21.9552 28.296C22.486 28.296 22.9162 27.8726 22.9162 27.3504C22.9162 26.8281 22.486 26.4048 21.9552 26.4048C21.4245 26.4048 20.9943 26.8281 20.9943 27.3504C20.9943 27.8726 21.4245 28.296 21.9552 28.296Z" fill="#A82116"/>
<path d="M21.9555 26.4048C21.905 26.4048 21.856 26.4098 21.8076 26.4172V28.2838C21.856 28.2913 21.905 28.2962 21.9555 28.2962C22.4863 28.2962 22.9164 27.8728 22.9164 27.3506C22.9164 26.8284 22.4861 26.4048 21.9555 26.4048Z" fill="#991A14"/>
<path d="M18.2961 34.7701C18.6635 34.7701 18.9614 34.477 18.9614 34.1154C18.9614 33.7538 18.6635 33.4607 18.2961 33.4607C17.9286 33.4607 17.6307 33.7538 17.6307 34.1154C17.6307 34.477 17.9286 34.7701 18.2961 34.7701Z" fill="#B8C9D9"/>
<path d="M26.1689 34.7701C26.5364 34.7701 26.8342 34.477 26.8342 34.1154C26.8342 33.7538 26.5364 33.4607 26.1689 33.4607C25.8014 33.4607 25.5035 33.7538 25.5035 34.1154C25.5035 34.477 25.8014 34.7701 26.1689 34.7701Z" fill="#A7B8C6"/>
<path d="M18.2961 39.7164C18.6635 39.7164 18.9614 39.4233 18.9614 39.0617C18.9614 38.7001 18.6635 38.407 18.2961 38.407C17.9286 38.407 17.6307 38.7001 17.6307 39.0617C17.6307 39.4233 17.9286 39.7164 18.2961 39.7164Z" fill="#B8C9D9"/>
<path d="M26.1689 39.7164C26.5364 39.7164 26.8342 39.4233 26.8342 39.0617C26.8342 38.7001 26.5364 38.407 26.1689 38.407C25.8014 38.407 25.5035 38.7001 25.5035 39.0617C25.5035 39.4233 25.8014 39.7164 26.1689 39.7164Z" fill="#A7B8C6"/>
<path d="M29.1259 15.021H14.489V17.4214H29.1259V15.021Z" fill="#B8C9D9"/>
<path d="M29.1258 15.021H21.8074V17.4214H29.1258V15.021Z" fill="#A7B8C6"/>
<path d="M36.229 34.2609H36.0723C35.6247 34.2609 35.2617 33.9037 35.2617 33.4632V28.1506H37.0398V33.4632C37.0398 33.9037 36.6768 34.2609 36.229 34.2609Z" fill="#935635"/>
<path d="M35.2616 16.8032C35.2616 16.8032 38.5216 18.0155 38.1956 28.8054H35.2616V16.8032Z" fill="#E6F3FF"/>
<path d="M35.2616 16.8032V17.8942C36.1727 19.2667 37.2837 22.289 37.0868 28.8055H38.1956C38.5215 18.0155 35.2616 16.8032 35.2616 16.8032Z" fill="#CFDBE6"/>
<path d="M30.5675 8.63786C30.5675 6.29779 28.6395 4.40069 26.2614 4.40069C25.7604 4.40069 25.2798 4.48575 24.8326 4.64061C24.0124 3.96861 22.9582 3.56421 21.8075 3.56421C20.6568 3.56421 19.6025 3.96861 18.7824 4.64061C18.3351 4.48584 17.8545 4.40069 17.3536 4.40069C14.9754 4.40069 13.0475 6.29779 13.0475 8.63786C13.0475 9.89536 13.6047 11.0245 14.489 11.8005V17.2395H29.1259V11.8005C30.0101 11.0245 30.5675 9.89536 30.5675 8.63786Z" fill="#E6F3FF"/>
<path d="M26.2615 4.40069C25.7605 4.40069 25.2799 4.48575 24.8327 4.64061C24.0125 3.96878 22.9582 3.56421 21.8077 3.56421V17.2395H29.1261V11.8005C30.0104 11.0245 30.5676 9.89536 30.5676 8.63786C30.5676 6.29779 28.6396 4.40069 26.2615 4.40069Z" fill="#CFDBE6"/>
<path d="M29.1259 15.021H14.489V17.4214H29.1259V15.021Z" fill="#B8C9D9"/>
<path d="M29.1258 15.021H21.8074V17.4214H29.1258V15.021Z" fill="#A7B8C6"/>
</g>
<defs>
<clipPath id="clip0_96_158">
<rect width="43.9106" height="43.208" fill="white"/>
</clipPath>
</defs>
</svg>
