<svg width="90" height="75" viewBox="0 0 90 75" fill="none" xmlns="http://www.w3.org/2000/svg">
<g id="SVGRepo_iconCarrier">
<path id="Vector" fill-rule="evenodd" clip-rule="evenodd" d="M74.1135 42.4016C75.4316 41.0901 77.5682 41.0901 78.8862 42.4016L87.8862 51.3568C89.2043 52.6683 89.2043 54.7943 87.8862 56.1058C86.5682 57.4173 84.4316 57.4173 83.1135 56.1058L79.8749 52.8837V71.6418C79.8749 73.4964 78.3638 75 76.4999 75C74.636 75 73.1249 73.4964 73.1249 71.6418V52.8837L69.8862 56.1058C68.5682 57.4173 66.4316 57.4173 65.1135 56.1058C63.7955 54.7943 63.7955 52.6683 65.1135 51.3568L74.1135 42.4016Z" fill="#313638"/>
<path id="Vector_2" d="M36 0H54C70.9704 0 79.456 -5.33774e-07 84.7278 5.24585C88.524 9.0229 89.5869 14.4574 89.8843 23.5075H0.115723C0.413308 14.4574 1.47612 9.0229 5.27205 5.24585C10.5442 -5.33774e-07 19.0294 0 36 0Z" fill="#313638"/>
<path id="Vector_3" fill-rule="evenodd" clip-rule="evenodd" d="M36 71.6419H54C58.7515 71.6419 62.838 71.6419 66.375 71.5268V63.7442C64.1704 63.5002 62.0312 62.5371 60.3405 60.8553C56.3864 56.9208 56.3864 50.542 60.3405 46.6075L69.3405 37.6523C73.2947 33.7178 79.7053 33.7178 83.6595 37.6523L89.9716 43.9335C90 41.4685 90 38.7739 90 35.8209C90 33.8422 90 31.9791 89.9915 30.2239H0.00850475C-2.51457e-07 31.9791 0 33.8422 0 35.8209C0 52.7069 5.36442e-07 61.1504 5.27207 66.3959C10.5442 71.6419 19.0294 71.6419 36 71.6419ZM14.625 53.7314C14.625 51.8768 16.1361 50.3732 18 50.3732H36C37.8639 50.3732 39.375 51.8768 39.375 53.7314C39.375 55.586 37.8639 57.0896 36 57.0896H18C16.1361 57.0896 14.625 55.586 14.625 53.7314ZM47.25 50.3732C45.3861 50.3732 43.875 51.8768 43.875 53.7314C43.875 55.586 45.3861 57.0896 47.25 57.0896H54C55.8639 57.0896 57.375 55.586 57.375 53.7314C57.375 51.8768 55.8639 50.3732 54 50.3732H47.25Z" fill="#313638"/>
</g>
</svg>
