<svg width="90" height="90" viewBox="0 0 90 90" fill="none" xmlns="http://www.w3.org/2000/svg">
<path d="M20.4 29.85L22.35 27.8625C24.525 25.6875 28.125 25.6875 30.375 28.0125L30.45 28.125C32.2875 30 34.725 30.9 37.3875 31.1625C41.025 31.5 44.55 33.45 46.875 36.975C49.425 41.025 49.3875 46.425 46.725 50.4375C45.7208 52.0256 44.3703 53.3659 42.7748 54.3581C41.1792 55.3504 39.3798 55.9689 37.5114 56.1672C35.643 56.3656 33.7539 56.1388 31.9855 55.5037C30.2171 54.8686 28.6153 53.8418 27.3 52.5C25.2 50.4375 24 47.775 23.7 45C23.4 42.2625 22.3125 39.675 20.4 37.7625C18.225 35.625 18.225 32.025 20.4 29.85ZM36.15 60C31.7625 60 27.675 58.3125 24.6375 55.2C22.0125 52.5 20.3625 49.125 19.95 45.45C19.8375 44.325 19.5 42.8625 18.6 41.5125C16.35 44.625 15 48.375 15 52.5C15 58.65 18 64.0875 22.6125 67.5H71.25V63.75C71.25 50.25 62.2875 38.8125 50.025 35.0625C53.3625 40.3125 53.2875 47.325 49.875 52.5C46.875 57.1875 41.7 60 36.15 60ZM55.425 28.35H60.1875C63.45 28.35 66.3 30.6375 66.3 34.725V37.5H70.9875V33.75C70.9875 28.125 66 23.85 60.1875 23.85H55.425C52.3125 23.85 49.65 20.775 49.65 17.625C49.65 14.475 52.3125 12.15 55.425 12.15V7.5C49.65 7.5 45 12.15 45 17.925C45 23.7 49.65 28.35 55.425 28.35ZM16.875 28.3125C17.1 27.9375 17.4 27.5625 17.7375 27.1875L19.6875 25.2375C20.025 24.9 20.4 24.6375 20.775 24.375L15.4875 19.0125C16.0125 18 15.825 16.6875 15 15.825C14.463 15.3023 13.7432 15.0098 12.9938 15.0098C12.2444 15.0098 11.5245 15.3023 10.9875 15.825C10.4625 16.35 10.2 16.9875 10.1625 17.6625C9.48752 17.7 8.85002 17.9625 8.32502 18.4875C7.23752 19.575 7.23752 21.375 8.32502 22.5C9.18752 23.325 10.4625 23.5125 11.5125 22.9875L16.875 28.3125ZM68.9625 16.4625C70.875 14.55 72.075 11.9625 72.075 9.075H67.3875C67.3875 12.1875 64.7625 14.8125 61.65 14.8125V19.4625C68.625 19.4625 74.1 25.1625 74.1 32.1375V41.25H78.75V32.1375C78.7688 28.8664 77.859 25.6571 76.1265 22.8825C74.394 20.1078 71.9098 17.8816 68.9625 16.4625ZM18.75 78.75H71.25C75.4125 78.75 78.75 75.4125 78.75 71.25H11.25C11.25 73.2391 12.0402 75.1468 13.4467 76.5533C14.8532 77.9598 16.7609 78.75 18.75 78.75Z" fill="#3E4547"/>
</svg>
