<svg width="90" height="90" viewBox="0 0 90 90" fill="none" xmlns="http://www.w3.org/2000/svg">
<path d="M73.4769 48.9904L60.9601 21.5691C60.3266 20.1791 58.948 19.3741 57.5116 19.3861C57.5082 19.3945 57.5082 19.4023 57.506 19.4106C56.954 25.3143 53.79 40.1514 49.9568 40.1514C46.1269 40.1514 42.963 25.3154 42.4086 19.4106C42.4086 19.4035 42.4086 19.3945 42.4086 19.3872C40.9721 19.3743 39.5936 20.1791 38.9568 21.5691L33.3649 33.8199C33.124 33.6544 32.8452 33.5345 32.5318 33.5345H21.3936C20.5638 33.5345 19.8924 34.2059 19.8924 35.0357V35.4126C17.8391 35.4376 16.1831 37.1 16.1831 39.1578C16.1831 41.215 17.8393 42.8777 19.8924 42.9024V53.6708C19.8924 54.5012 20.5638 55.1726 21.3936 55.1726H32.5318C33.3595 55.1726 34.0329 54.5012 34.0329 53.6708V42.9113H35.0534C36.5256 42.9113 37.8606 42.0535 38.4705 40.7163L39.3181 38.8571L39.3058 85.4958C39.3058 87.9842 41.3235 89.9999 43.8104 89.9999C46.3007 89.9999 48.315 87.9842 48.315 85.4958V58.6523H51.5994V85.4958C51.5994 87.9842 53.6169 89.9999 56.104 89.9999C58.5933 89.9999 60.6086 87.9842 60.6086 85.4958L60.5997 38.8571L66.65 52.1079C67.2769 53.489 68.6408 54.3041 70.0662 54.3041C70.5848 54.3041 71.1156 54.1943 71.6231 53.9639C73.5058 53.1038 74.339 50.8758 73.4769 48.9904ZM31.0304 52.1696H22.8955V36.5375H31.0304V52.1696Z" fill="#313638"/>
<path d="M54.3709 26.4186C56.9016 23.8863 56.9016 19.7806 54.3709 17.2483C54.0163 16.8948 53.4474 16.8948 53.0918 17.2483L49.9567 20.3817L46.8248 17.2483C46.4735 16.8948 45.8981 16.8948 45.5468 17.2483C43.0129 19.7806 43.0129 23.8863 45.5468 26.4186C45.8983 26.7715 46.4735 26.7715 46.8248 26.4186L49.9567 23.2846L53.0918 26.4186C53.4476 26.7715 54.0163 26.7715 54.3709 26.4186Z" fill="#313638"/>
<path d="M49.9569 17.5531C52.6848 17.5531 55.086 16.2878 56.6965 14.3407C57.9511 12.8228 58.7374 10.9016 58.7374 8.77709C58.7374 3.92827 54.8082 0 49.9569 0C45.1131 0 41.1829 3.92827 41.1829 8.77709C41.1829 10.9006 41.9657 12.8228 43.2239 14.3407C44.831 16.2861 47.2355 17.5531 49.9569 17.5531Z" fill="#313638"/>
<path d="M49.9568 26.6841C49.1304 26.6841 48.4556 27.3555 48.4556 28.1851C48.4556 29.0148 49.1304 29.6867 49.9568 29.6867C50.7899 29.6867 51.4589 29.0148 51.4589 28.1851C51.4589 27.3555 50.7899 26.6841 49.9568 26.6841Z" fill="#313638"/>
<path d="M49.9568 32.6897C49.1304 32.6897 48.4556 33.3609 48.4556 34.1913C48.4556 35.0211 49.1304 35.6923 49.9568 35.6923C50.7899 35.6923 51.4589 35.0211 51.4589 34.1913C51.4589 33.3611 50.7899 32.6897 49.9568 32.6897Z" fill="#313638"/>
</svg>
